<svg width="17" height="17" viewBox="0 0 17 17" fill="none" xmlns="http://www.w3.org/2000/svg">
<path d="M12.5111 5.03277V11.9772C12.5111 12.4078 12.4972 12.7897 12.4486 13.13C12.2472 14.9564 11.3861 15.4494 9.03885 15.4494H7.64996C5.30273 15.4494 4.44162 14.9564 4.24023 13.13C4.19162 12.7897 4.17773 12.4078 4.17773 11.9772V5.03277C4.17773 4.60221 4.19162 4.22027 4.24023 3.87999C4.44162 2.0536 5.30273 1.56055 7.64996 1.56055H9.03885C11.3861 1.56055 12.2472 2.0536 12.4486 3.87999C12.4972 4.22027 12.5111 4.60221 12.5111 5.03277Z" stroke="white" stroke-width="0.833333" stroke-linecap="round" stroke-linejoin="round"/>
<path d="M4.17719 11.9772C4.17719 12.4078 4.19108 12.7897 4.23969 13.13C4.14247 13.1369 4.05219 13.1369 3.94803 13.1369H3.71191C1.86469 13.1369 1.39941 12.6717 1.39941 10.8175V6.19249C1.39941 4.33832 1.86469 3.87305 3.71191 3.87305H3.94803C4.05219 3.87305 4.14247 3.87305 4.23969 3.87999C4.19108 4.22027 4.17719 4.60221 4.17719 5.03277V11.9772Z" stroke="white" stroke-width="0.833333" stroke-linecap="round" stroke-linejoin="round"/>
<path d="M15.2895 6.19249V10.8175C15.2895 12.6717 14.8242 13.1369 12.977 13.1369H12.7409C12.6367 13.1369 12.5464 13.1369 12.4492 13.13C12.4978 12.7897 12.5117 12.4078 12.5117 11.9772V5.03277C12.5117 4.60221 12.4978 4.22027 12.4492 3.87999C12.5464 3.87305 12.6367 3.87305 12.7409 3.87305H12.977C14.8242 3.87305 15.2895 4.33832 15.2895 6.19249Z" stroke="white" stroke-width="0.833333" stroke-linecap="round" stroke-linejoin="round"/>
<path d="M6.33301 8.53182V7.69848C6.33301 6.62904 7.08995 6.19154 8.01356 6.72626L8.73579 7.14293L9.45801 7.5596C10.3816 8.09432 10.3816 8.96932 9.45801 9.50404L8.73579 9.92071L8.01356 10.3374C7.08995 10.8721 6.33301 10.4346 6.33301 9.36515V8.53182V8.53182Z" stroke="white" stroke-width="0.833333" stroke-miterlimit="10" stroke-linecap="round" stroke-linejoin="round"/>
</svg>
