<svg width="17" height="18" viewBox="0 0 17 18" fill="none" xmlns="http://www.w3.org/2000/svg">
<path d="M12.8441 5.78277V12.7272C12.8441 13.1578 12.8302 13.5397 12.7816 13.88C12.5802 15.7064 11.7191 16.1994 9.37185 16.1994H7.98296C5.63574 16.1994 4.77463 15.7064 4.57324 13.88C4.52463 13.5397 4.51074 13.1578 4.51074 12.7272V5.78277C4.51074 5.35221 4.52463 4.97027 4.57324 4.62999C4.77463 2.8036 5.63574 2.31055 7.98296 2.31055H9.37185C11.7191 2.31055 12.5802 2.8036 12.7816 4.62999C12.8302 4.97027 12.8441 5.35221 12.8441 5.78277Z" stroke="white" stroke-width="0.833333" stroke-linecap="round" stroke-linejoin="round"/>
<path d="M4.5102 12.7272C4.5102 13.1578 4.52409 13.5397 4.5727 13.88C4.47548 13.8869 4.3852 13.8869 4.28103 13.8869H4.04492C2.1977 13.8869 1.73242 13.4217 1.73242 11.5675V6.94249C1.73242 5.08832 2.1977 4.62305 4.04492 4.62305H4.28103C4.3852 4.62305 4.47548 4.62305 4.5727 4.62999C4.52409 4.97027 4.5102 5.35221 4.5102 5.78277V12.7272Z" stroke="white" stroke-width="0.833333" stroke-linecap="round" stroke-linejoin="round"/>
<path d="M15.6225 6.94249V11.5675C15.6225 13.4217 15.1572 13.8869 13.31 13.8869H13.0739C12.9697 13.8869 12.8794 13.8869 12.7822 13.88C12.8308 13.5397 12.8447 13.1578 12.8447 12.7272V5.78277C12.8447 5.35221 12.8308 4.97027 12.7822 4.62999C12.8794 4.62305 12.9697 4.62305 13.0739 4.62305H13.31C15.1572 4.62305 15.6225 5.08832 15.6225 6.94249Z" stroke="white" stroke-width="0.833333" stroke-linecap="round" stroke-linejoin="round"/>
<path d="M6.66602 9.28182V8.44848C6.66602 7.37904 7.42296 6.94154 8.34657 7.47626L9.06879 7.89293L9.79102 8.3096C10.7146 8.84432 10.7146 9.71932 9.79102 10.254L9.06879 10.6707L8.34657 11.0874C7.42296 11.6221 6.66602 11.1846 6.66602 10.1152V9.28182V9.28182Z" stroke="white" stroke-width="0.833333" stroke-miterlimit="10" stroke-linecap="round" stroke-linejoin="round"/>
</svg>
