<svg width="17" height="17" viewBox="0 0 17 17" fill="none" xmlns="http://www.w3.org/2000/svg">
<path d="M12.5111 5.03204V11.9765C12.5111 12.407 12.4972 12.789 12.4486 13.1293C12.2472 14.9556 11.3861 15.4487 9.03885 15.4487H7.64996C5.30273 15.4487 4.44162 14.9556 4.24023 13.1293C4.19162 12.789 4.17773 12.407 4.17773 11.9765V5.03204C4.17773 4.60148 4.19162 4.21954 4.24023 3.87926C4.44162 2.05287 5.30273 1.55981 7.64996 1.55981H9.03885C11.3861 1.55981 12.2472 2.05287 12.4486 3.87926C12.4972 4.21954 12.5111 4.60148 12.5111 5.03204Z" stroke="white" stroke-width="0.833333" stroke-linecap="round" stroke-linejoin="round"/>
<path d="M4.17719 11.9767C4.17719 12.4073 4.19108 12.7892 4.23969 13.1295C4.14247 13.1364 4.05219 13.1364 3.94803 13.1364H3.71191C1.86469 13.1364 1.39941 12.6712 1.39941 10.817V6.192C1.39941 4.33784 1.86469 3.87256 3.71191 3.87256H3.94803C4.05219 3.87256 4.14247 3.87256 4.23969 3.8795C4.19108 4.21978 4.17719 4.60173 4.17719 5.03228V11.9767Z" stroke="white" stroke-width="0.833333" stroke-linecap="round" stroke-linejoin="round"/>
<path d="M15.2895 6.192V10.817C15.2895 12.6712 14.8242 13.1364 12.977 13.1364H12.7409C12.6367 13.1364 12.5464 13.1364 12.4492 13.1295C12.4978 12.7892 12.5117 12.4073 12.5117 11.9767V5.03228C12.5117 4.60173 12.4978 4.21978 12.4492 3.8795C12.5464 3.87256 12.6367 3.87256 12.7409 3.87256H12.977C14.8242 3.87256 15.2895 4.33784 15.2895 6.192Z" stroke="white" stroke-width="0.833333" stroke-linecap="round" stroke-linejoin="round"/>
<path d="M6.33301 8.53206V7.69873C6.33301 6.62928 7.08995 6.19178 8.01356 6.72651L8.73579 7.14317L9.45801 7.55984C10.3816 8.09456 10.3816 8.96956 9.45801 9.50428L8.73579 9.92095L8.01356 10.3376C7.08995 10.8723 6.33301 10.4348 6.33301 9.3654V8.53206V8.53206Z" stroke="white" stroke-width="0.833333" stroke-miterlimit="10" stroke-linecap="round" stroke-linejoin="round"/>
</svg>
