<svg width="17" height="18" viewBox="0 0 17 18" fill="none" xmlns="http://www.w3.org/2000/svg">
<path d="M12.5111 5.69878V12.6432C12.5111 13.0738 12.4972 13.4557 12.4486 13.796C12.2472 15.6224 11.3861 16.1155 9.03885 16.1155H7.64996C5.30273 16.1155 4.44162 15.6224 4.24023 13.796C4.19162 13.4557 4.17773 13.0738 4.17773 12.6432V5.69878C4.17773 5.26823 4.19162 4.88628 4.24023 4.54601C4.44162 2.71962 5.30273 2.22656 7.64996 2.22656H9.03885C11.3861 2.22656 12.2472 2.71962 12.4486 4.54601C12.4972 4.88628 12.5111 5.26823 12.5111 5.69878Z" stroke="white" stroke-width="0.833333" stroke-linecap="round" stroke-linejoin="round"/>
<path d="M4.17719 12.6432C4.17719 13.0738 4.19108 13.4557 4.23969 13.796C4.14247 13.803 4.05219 13.803 3.94803 13.803H3.71191C1.86469 13.803 1.39941 13.3377 1.39941 11.4835V6.85851C1.39941 5.00434 1.86469 4.53906 3.71191 4.53906H3.94803C4.05219 4.53906 4.14247 4.53906 4.23969 4.54601C4.19108 4.88628 4.17719 5.26823 4.17719 5.69878V12.6432Z" stroke="white" stroke-width="0.833333" stroke-linecap="round" stroke-linejoin="round"/>
<path d="M15.2895 6.85851V11.4835C15.2895 13.3377 14.8242 13.803 12.977 13.803H12.7409C12.6367 13.803 12.5464 13.803 12.4492 13.796C12.4978 13.4557 12.5117 13.0738 12.5117 12.6432V5.69878C12.5117 5.26823 12.4978 4.88628 12.4492 4.54601C12.5464 4.53906 12.6367 4.53906 12.7409 4.53906H12.977C14.8242 4.53906 15.2895 5.00434 15.2895 6.85851Z" stroke="white" stroke-width="0.833333" stroke-linecap="round" stroke-linejoin="round"/>
<path d="M6.33301 9.19783V8.3645C6.33301 7.29506 7.08995 6.85756 8.01356 7.39228L8.73579 7.80894L9.45801 8.22561C10.3816 8.76033 10.3816 9.63533 9.45801 10.1701L8.73579 10.5867L8.01356 11.0034C7.08995 11.5381 6.33301 11.1006 6.33301 10.0312V9.19783V9.19783Z" stroke="white" stroke-width="0.833333" stroke-miterlimit="10" stroke-linecap="round" stroke-linejoin="round"/>
</svg>
