<svg width="17" height="18" viewBox="0 0 17 18" fill="none" xmlns="http://www.w3.org/2000/svg">
<path d="M12.8441 5.4483V12.3927C12.8441 12.8233 12.8302 13.2052 12.7816 13.5455C12.5802 15.3719 11.7191 15.865 9.37185 15.865H7.98296C5.63574 15.865 4.77463 15.3719 4.57324 13.5455C4.52463 13.2052 4.51074 12.8233 4.51074 12.3927V5.4483C4.51074 5.01774 4.52463 4.6358 4.57324 4.29552C4.77463 2.46913 5.63574 1.97607 7.98296 1.97607H9.37185C11.7191 1.97607 12.5802 2.46913 12.7816 4.29552C12.8302 4.6358 12.8441 5.01774 12.8441 5.4483Z" stroke="white" stroke-width="0.833333" stroke-linecap="round" stroke-linejoin="round"/>
<path d="M4.5102 12.3932C4.5102 12.8238 4.52409 13.2057 4.5727 13.546C4.47548 13.553 4.3852 13.553 4.28103 13.553H4.04492C2.1977 13.553 1.73242 13.0877 1.73242 11.2335V6.60851C1.73242 4.75434 2.1977 4.28906 4.04492 4.28906H4.28103C4.3852 4.28906 4.47548 4.28906 4.5727 4.29601C4.52409 4.63628 4.5102 5.01823 4.5102 5.44878V12.3932Z" stroke="white" stroke-width="0.833333" stroke-linecap="round" stroke-linejoin="round"/>
<path d="M15.6225 6.60851V11.2335C15.6225 13.0877 15.1572 13.553 13.31 13.553H13.0739C12.9697 13.553 12.8794 13.553 12.7822 13.546C12.8308 13.2057 12.8447 12.8238 12.8447 12.3932V5.44878C12.8447 5.01823 12.8308 4.63628 12.7822 4.29601C12.8794 4.28906 12.9697 4.28906 13.0739 4.28906H13.31C15.1572 4.28906 15.6225 4.75434 15.6225 6.60851Z" stroke="white" stroke-width="0.833333" stroke-linecap="round" stroke-linejoin="round"/>
<path d="M6.66602 8.94881V8.11548C6.66602 7.04603 7.42296 6.60853 8.34657 7.14326L9.06879 7.55992L9.79102 7.97659C10.7146 8.51131 10.7146 9.38631 9.79102 9.92103L9.06879 10.3377L8.34657 10.7544C7.42296 11.2891 6.66602 10.8516 6.66602 9.78214V8.94881V8.94881Z" stroke="white" stroke-width="0.833333" stroke-miterlimit="10" stroke-linecap="round" stroke-linejoin="round"/>
</svg>
