<svg width="17" height="17" viewBox="0 0 17 17" fill="none" xmlns="http://www.w3.org/2000/svg">
<path d="M12.5108 5.03277V11.9772C12.5108 12.4078 12.4969 12.7897 12.4483 13.13C12.2469 14.9564 11.3858 15.4494 9.0386 15.4494H7.64971C5.30249 15.4494 4.44138 14.9564 4.23999 13.13C4.19138 12.7897 4.17749 12.4078 4.17749 11.9772V5.03277C4.17749 4.60221 4.19138 4.22027 4.23999 3.87999C4.44138 2.0536 5.30249 1.56055 7.64971 1.56055H9.0386C11.3858 1.56055 12.2469 2.0536 12.4483 3.87999C12.4969 4.22027 12.5108 4.60221 12.5108 5.03277Z" stroke="white" stroke-width="0.833333" stroke-linecap="round" stroke-linejoin="round"/>
<path d="M4.17719 11.9772C4.17719 12.4078 4.19108 12.7897 4.23969 13.13C4.14247 13.1369 4.05219 13.1369 3.94803 13.1369H3.71191C1.86469 13.1369 1.39941 12.6717 1.39941 10.8175V6.19249C1.39941 4.33832 1.86469 3.87305 3.71191 3.87305H3.94803C4.05219 3.87305 4.14247 3.87305 4.23969 3.87999C4.19108 4.22027 4.17719 4.60221 4.17719 5.03277V11.9772Z" stroke="white" stroke-width="0.833333" stroke-linecap="round" stroke-linejoin="round"/>
<path d="M15.2883 6.19249V10.8175C15.2883 12.6717 14.823 13.1369 12.9758 13.1369H12.7397C12.6355 13.1369 12.5452 13.1369 12.448 13.13C12.4966 12.7897 12.5105 12.4078 12.5105 11.9772V5.03277C12.5105 4.60221 12.4966 4.22027 12.448 3.87999C12.5452 3.87305 12.6355 3.87305 12.7397 3.87305H12.9758C14.823 3.87305 15.2883 4.33832 15.2883 6.19249Z" stroke="white" stroke-width="0.833333" stroke-linecap="round" stroke-linejoin="round"/>
<path d="M6.33325 8.53279V7.69946C6.33325 6.63002 7.0902 6.19252 8.01381 6.72724L8.73603 7.14391L9.45825 7.56057C10.3819 8.09529 10.3819 8.9703 9.45825 9.50502L8.73603 9.92168L8.01381 10.3383C7.0902 10.8731 6.33325 10.4356 6.33325 9.36613V8.53279V8.53279Z" stroke="white" stroke-width="0.833333" stroke-miterlimit="10" stroke-linecap="round" stroke-linejoin="round"/>
</svg>
