<svg width="17" height="18" viewBox="0 0 17 18" fill="none" xmlns="http://www.w3.org/2000/svg">
<path d="M12.8441 5.44878V12.3932C12.8441 12.8238 12.8302 13.2057 12.7816 13.546C12.5802 15.3724 11.7191 15.8655 9.37185 15.8655H7.98296C5.63574 15.8655 4.77463 15.3724 4.57324 13.546C4.52463 13.2057 4.51074 12.8238 4.51074 12.3932V5.44878C4.51074 5.01823 4.52463 4.63628 4.57324 4.29601C4.77463 2.46962 5.63574 1.97656 7.98296 1.97656H9.37185C11.7191 1.97656 12.5802 2.46962 12.7816 4.29601C12.8302 4.63628 12.8441 5.01823 12.8441 5.44878Z" stroke="white" stroke-width="0.833333" stroke-linecap="round" stroke-linejoin="round"/>
<path d="M4.5102 12.3942C4.5102 12.8248 4.52409 13.2067 4.5727 13.547C4.47548 13.5539 4.3852 13.5539 4.28103 13.5539H4.04492C2.1977 13.5539 1.73242 13.0887 1.73242 11.2345V6.60948C1.73242 4.75532 2.1977 4.29004 4.04492 4.29004H4.28103C4.3852 4.29004 4.47548 4.29004 4.5727 4.29698C4.52409 4.63726 4.5102 5.01921 4.5102 5.44976V12.3942Z" stroke="white" stroke-width="0.833333" stroke-linecap="round" stroke-linejoin="round"/>
<path d="M15.6225 6.60948V11.2345C15.6225 13.0887 15.1572 13.5539 13.31 13.5539H13.0739C12.9697 13.5539 12.8794 13.5539 12.7822 13.547C12.8308 13.2067 12.8447 12.8248 12.8447 12.3942V5.44976C12.8447 5.01921 12.8308 4.63726 12.7822 4.29698C12.8794 4.29004 12.9697 4.29004 13.0739 4.29004H13.31C15.1572 4.29004 15.6225 4.75532 15.6225 6.60948Z" stroke="white" stroke-width="0.833333" stroke-linecap="round" stroke-linejoin="round"/>
<path d="M6.66602 8.9493V8.11597C6.66602 7.04652 7.42296 6.60902 8.34657 7.14374L9.06879 7.56041L9.79102 7.97708C10.7146 8.5118 10.7146 9.3868 9.79102 9.92152L9.06879 10.3382L8.34657 10.7549C7.42296 11.2896 6.66602 10.8521 6.66602 9.78263V8.9493V8.9493Z" stroke="white" stroke-width="0.833333" stroke-miterlimit="10" stroke-linecap="round" stroke-linejoin="round"/>
</svg>
