<svg width="17" height="17" viewBox="0 0 17 17" fill="none" xmlns="http://www.w3.org/2000/svg">
<path d="M12.5111 5.0313V11.9757C12.5111 12.4063 12.4972 12.7882 12.4486 13.1285C12.2472 14.9549 11.3861 15.448 9.03885 15.448H7.64996C5.30273 15.448 4.44162 14.9549 4.24023 13.1285C4.19162 12.7882 4.17773 12.4063 4.17773 11.9757V5.0313C4.17773 4.60075 4.19162 4.2188 4.24023 3.87853C4.44162 2.05214 5.30273 1.55908 7.64996 1.55908H9.03885C11.3861 1.55908 12.2472 2.05214 12.4486 3.87853C12.4972 4.2188 12.5111 4.60075 12.5111 5.0313Z" stroke="white" stroke-width="0.833333" stroke-linecap="round" stroke-linejoin="round"/>
<path d="M4.17719 11.9762C4.17719 12.4068 4.19108 12.7887 4.23969 13.129C4.14247 13.136 4.05219 13.136 3.94803 13.136H3.71191C1.86469 13.136 1.39941 12.6707 1.39941 10.8165V6.19152C1.39941 4.33735 1.86469 3.87207 3.71191 3.87207H3.94803C4.05219 3.87207 4.14247 3.87207 4.23969 3.87901C4.19108 4.21929 4.17719 4.60124 4.17719 5.03179V11.9762Z" stroke="white" stroke-width="0.833333" stroke-linecap="round" stroke-linejoin="round"/>
<path d="M15.2895 6.19152V10.8165C15.2895 12.6707 14.8242 13.136 12.977 13.136H12.7409C12.6367 13.136 12.5464 13.136 12.4492 13.129C12.4978 12.7887 12.5117 12.4068 12.5117 11.9762V5.03179C12.5117 4.60124 12.4978 4.21929 12.4492 3.87901C12.5464 3.87207 12.6367 3.87207 12.7409 3.87207H12.977C14.8242 3.87207 15.2895 4.33735 15.2895 6.19152Z" stroke="white" stroke-width="0.833333" stroke-linecap="round" stroke-linejoin="round"/>
<path d="M6.33301 8.53182V7.69848C6.33301 6.62904 7.08995 6.19154 8.01356 6.72626L8.73579 7.14293L9.45801 7.5596C10.3816 8.09432 10.3816 8.96932 9.45801 9.50404L8.73579 9.92071L8.01356 10.3374C7.08995 10.8721 6.33301 10.4346 6.33301 9.36515V8.53182V8.53182Z" stroke="white" stroke-width="0.833333" stroke-miterlimit="10" stroke-linecap="round" stroke-linejoin="round"/>
</svg>
