<svg width="17" height="18" viewBox="0 0 17 18" fill="none" xmlns="http://www.w3.org/2000/svg">
<path d="M12.8441 5.4483V12.3927C12.8441 12.8233 12.8302 13.2052 12.7816 13.5455C12.5802 15.3719 11.7191 15.865 9.37185 15.865H7.98296C5.63574 15.865 4.77463 15.3719 4.57324 13.5455C4.52463 13.2052 4.51074 12.8233 4.51074 12.3927V5.4483C4.51074 5.01774 4.52463 4.6358 4.57324 4.29552C4.77463 2.46913 5.63574 1.97607 7.98296 1.97607H9.37185C11.7191 1.97607 12.5802 2.46913 12.7816 4.29552C12.8302 4.6358 12.8441 5.01774 12.8441 5.4483Z" stroke="white" stroke-width="0.833333" stroke-linecap="round" stroke-linejoin="round"/>
<path d="M4.51118 12.3932C4.51118 12.8238 4.52507 13.2057 4.57368 13.546C4.47645 13.553 4.38618 13.553 4.28201 13.553H4.0459C2.19868 13.553 1.7334 13.0877 1.7334 11.2335V6.60851C1.7334 4.75434 2.19868 4.28906 4.0459 4.28906H4.28201C4.38618 4.28906 4.47645 4.28906 4.57368 4.29601C4.52507 4.63628 4.51118 5.01823 4.51118 5.44878V12.3932Z" stroke="white" stroke-width="0.833333" stroke-linecap="round" stroke-linejoin="round"/>
<path d="M15.6225 6.60851V11.2335C15.6225 13.0877 15.1572 13.553 13.31 13.553H13.0739C12.9697 13.553 12.8794 13.553 12.7822 13.546C12.8308 13.2057 12.8447 12.8238 12.8447 12.3932V5.44878C12.8447 5.01823 12.8308 4.63628 12.7822 4.29601C12.8794 4.28906 12.9697 4.28906 13.0739 4.28906H13.31C15.1572 4.28906 15.6225 4.75434 15.6225 6.60851Z" stroke="white" stroke-width="0.833333" stroke-linecap="round" stroke-linejoin="round"/>
<path d="M6.6665 8.94881V8.11548C6.6665 7.04603 7.42345 6.60853 8.34706 7.14326L9.06928 7.55992L9.7915 7.97659C10.7151 8.51131 10.7151 9.38631 9.7915 9.92103L9.06928 10.3377L8.34706 10.7544C7.42345 11.2891 6.6665 10.8516 6.6665 9.78214V8.94881V8.94881Z" stroke="white" stroke-width="0.833333" stroke-miterlimit="10" stroke-linecap="round" stroke-linejoin="round"/>
</svg>
