<svg width="17" height="18" viewBox="0 0 17 18" fill="none" xmlns="http://www.w3.org/2000/svg">
<path d="M12.8441 5.7813V12.7257C12.8441 13.1563 12.8302 13.5382 12.7816 13.8785C12.5802 15.7049 11.7191 16.198 9.37185 16.198H7.98296C5.63574 16.198 4.77463 15.7049 4.57324 13.8785C4.52463 13.5382 4.51074 13.1563 4.51074 12.7257V5.7813C4.51074 5.35075 4.52463 4.9688 4.57324 4.62853C4.77463 2.80214 5.63574 2.30908 7.98296 2.30908H9.37185C11.7191 2.30908 12.5802 2.80214 12.7816 4.62853C12.8302 4.9688 12.8441 5.35075 12.8441 5.7813Z" stroke="white" stroke-width="0.833333" stroke-linecap="round" stroke-linejoin="round"/>
<path d="M4.51118 12.7262C4.51118 13.1568 4.52507 13.5387 4.57368 13.879C4.47645 13.886 4.38618 13.886 4.28201 13.886H4.0459C2.19868 13.886 1.7334 13.4207 1.7334 11.5665V6.94152C1.7334 5.08735 2.19868 4.62207 4.0459 4.62207H4.28201C4.38618 4.62207 4.47645 4.62207 4.57368 4.62901C4.52507 4.96929 4.51118 5.35124 4.51118 5.78179V12.7262Z" stroke="white" stroke-width="0.833333" stroke-linecap="round" stroke-linejoin="round"/>
<path d="M15.6225 6.94152V11.5665C15.6225 13.4207 15.1572 13.886 13.31 13.886H13.0739C12.9697 13.886 12.8794 13.886 12.7822 13.879C12.8308 13.5387 12.8447 13.1568 12.8447 12.7262V5.78179C12.8447 5.35124 12.8308 4.96929 12.7822 4.62901C12.8794 4.62207 12.9697 4.62207 13.0739 4.62207H13.31C15.1572 4.62207 15.6225 5.08735 15.6225 6.94152Z" stroke="white" stroke-width="0.833333" stroke-linecap="round" stroke-linejoin="round"/>
<path d="M6.6665 9.28182V8.44848C6.6665 7.37904 7.42345 6.94154 8.34706 7.47626L9.06928 7.89293L9.7915 8.3096C10.7151 8.84432 10.7151 9.71932 9.7915 10.254L9.06928 10.6707L8.34706 11.0874C7.42345 11.6221 6.6665 11.1846 6.6665 10.1152V9.28182V9.28182Z" stroke="white" stroke-width="0.833333" stroke-miterlimit="10" stroke-linecap="round" stroke-linejoin="round"/>
</svg>
