<svg width="25" height="26" viewBox="0 0 25 26" fill="none" xmlns="http://www.w3.org/2000/svg">
<rect x="-0.000244141" y="0.666992" width="25" height="25" rx="12.5" fill="white"/>
<path d="M7.72976 16.917L7.19726 17.4495C7.05757 17.59 6.97916 17.7801 6.97916 17.9782C6.97916 18.1764 7.05757 18.3665 7.19726 18.507C7.33778 18.6467 7.52787 18.7251 7.72601 18.7251C7.92415 18.7251 8.11423 18.6467 8.25476 18.507L8.78726 17.9745C8.91013 17.831 8.97433 17.6465 8.96704 17.4577C8.95975 17.2689 8.8815 17.0899 8.74793 16.9563C8.61436 16.8227 8.4353 16.7445 8.24655 16.7372C8.05779 16.7299 7.87323 16.7941 7.72976 16.917ZM7.24976 13.167C7.24976 12.9681 7.17074 12.7773 7.03009 12.6367C6.88943 12.496 6.69867 12.417 6.49976 12.417H5.74976C5.55084 12.417 5.36008 12.496 5.21943 12.6367C5.07877 12.7773 4.99976 12.9681 4.99976 13.167C4.99976 13.3659 5.07877 13.5567 5.21943 13.6973C5.36008 13.838 5.55084 13.917 5.74976 13.917H6.49976C6.69867 13.917 6.88943 13.838 7.03009 13.6973C7.17074 13.5567 7.24976 13.3659 7.24976 13.167ZM12.4998 7.91699C12.6987 7.91699 12.8894 7.83797 13.0301 7.69732C13.1707 7.55667 13.2498 7.3659 13.2498 7.16699V6.41699C13.2498 6.21808 13.1707 6.02731 13.0301 5.88666C12.8894 5.74601 12.6987 5.66699 12.4998 5.66699C12.3008 5.66699 12.1101 5.74601 11.9694 5.88666C11.8288 6.02731 11.7498 6.21808 11.7498 6.41699V7.16699C11.7498 7.3659 11.8288 7.55667 11.9694 7.69732C12.1101 7.83797 12.3008 7.91699 12.4998 7.91699ZM7.72976 9.45449C7.86945 9.59305 8.058 9.67116 8.25476 9.67199C8.35346 9.67256 8.45131 9.65364 8.54269 9.61632C8.63406 9.579 8.71718 9.524 8.78726 9.45449C8.92694 9.31397 9.00535 9.12388 9.00535 8.92574C9.00535 8.7276 8.92694 8.53751 8.78726 8.39699L8.25476 7.86449C8.11128 7.74162 7.92672 7.67742 7.73797 7.68471C7.54921 7.692 7.37015 7.77025 7.23658 7.90382C7.10301 8.03739 7.02476 8.21645 7.01747 8.4052C7.01018 8.59396 7.07439 8.77852 7.19726 8.92199L7.72976 9.45449ZM16.7298 9.67199C16.9265 9.67116 17.1151 9.59305 17.2548 9.45449L17.7873 8.92199C17.8658 8.85476 17.9295 8.77202 17.9746 8.67897C18.0196 8.58592 18.0449 8.48457 18.0489 8.38128C18.0528 8.27799 18.0354 8.17499 17.9977 8.07875C17.96 7.98251 17.9028 7.8951 17.8297 7.822C17.7567 7.74891 17.6692 7.69172 17.573 7.65401C17.4768 7.61631 17.3738 7.5989 17.2705 7.60289C17.1672 7.60688 17.0658 7.63218 16.9728 7.6772C16.8797 7.72222 16.797 7.78598 16.7298 7.86449L16.2498 8.39699C16.1101 8.53751 16.0317 8.7276 16.0317 8.92574C16.0317 9.12388 16.1101 9.31397 16.2498 9.45449C16.382 9.58601 16.5585 9.66356 16.7448 9.67199H16.7298ZM19.2498 12.417H18.4998C18.3008 12.417 18.1101 12.496 17.9694 12.6367C17.8288 12.7773 17.7498 12.9681 17.7498 13.167C17.7498 13.3659 17.8288 13.5567 17.9694 13.6973C18.1101 13.838 18.3008 13.917 18.4998 13.917H19.2498C19.4487 13.917 19.6394 13.838 19.7801 13.6973C19.9207 13.5567 19.9998 13.3659 19.9998 13.167C19.9998 12.9681 19.9207 12.7773 19.7801 12.6367C19.6394 12.496 19.4487 12.417 19.2498 12.417ZM12.4998 18.417C12.3008 18.417 12.1101 18.496 11.9694 18.6367C11.8288 18.7773 11.7498 18.9681 11.7498 19.167V19.917C11.7498 20.1159 11.8288 20.3067 11.9694 20.4473C12.1101 20.588 12.3008 20.667 12.4998 20.667C12.6987 20.667 12.8894 20.588 13.0301 20.4473C13.1707 20.3067 13.2498 20.1159 13.2498 19.917V19.167C13.2498 18.9681 13.1707 18.7773 13.0301 18.6367C12.8894 18.496 12.6987 18.417 12.4998 18.417ZM17.2698 16.917C17.1273 16.8377 16.9628 16.8071 16.8014 16.8296C16.6399 16.8522 16.4901 16.9268 16.3749 17.0421C16.2596 17.1574 16.185 17.3071 16.1624 17.4686C16.1398 17.6301 16.1705 17.7945 16.2498 17.937L16.7823 18.4695C16.9228 18.6092 17.1129 18.6876 17.311 18.6876C17.5091 18.6876 17.6992 18.6092 17.8398 18.4695C17.9794 18.329 18.0579 18.1389 18.0579 17.9407C18.0579 17.7426 17.9794 17.5525 17.8398 17.412L17.2698 16.917ZM12.4998 9.04199C11.6839 9.04199 10.8864 9.28392 10.208 9.73718C9.52968 10.1904 9.00096 10.8347 8.68875 11.5884C8.37654 12.3422 8.29485 13.1716 8.45402 13.9717C8.61318 14.7719 9.00605 15.5069 9.58294 16.0838C10.1598 16.6607 10.8948 17.0536 11.695 17.2127C12.4952 17.3719 13.3246 17.2902 14.0783 16.978C14.8321 16.6658 15.4763 16.1371 15.9296 15.4587C16.3828 14.7804 16.6248 13.9828 16.6248 13.167C16.6228 12.0736 16.1875 11.0255 15.4144 10.2524C14.6412 9.47921 13.5932 9.04397 12.4998 9.04199ZM12.4998 15.792C11.9806 15.792 11.4731 15.638 11.0414 15.3496C10.6097 15.0612 10.2733 14.6512 10.0746 14.1715C9.87589 13.6919 9.82391 13.1641 9.92519 12.6549C10.0265 12.1457 10.2765 11.6779 10.6436 11.3108C11.0107 10.9437 11.4784 10.6937 11.9876 10.5924C12.4968 10.4911 13.0246 10.5431 13.5043 10.7418C13.984 10.9405 14.3939 11.2769 14.6824 11.7086C14.9708 12.1403 15.1248 12.6478 15.1248 13.167C15.1248 13.8632 14.8482 14.5309 14.3559 15.0231C13.8636 15.5154 13.1959 15.792 12.4998 15.792Z" fill="#053536"/>
</svg>
