<svg width="25" height="26" viewBox="0 0 25 26" fill="none" xmlns="http://www.w3.org/2000/svg">
<rect x="-0.000976562" y="0.666504" width="25" height="25" rx="12.5" fill="white"/>
<path d="M7.72902 16.9165L7.19652 17.449C7.05684 17.5895 6.97843 17.7796 6.97843 17.9778C6.97843 18.1759 7.05684 18.366 7.19652 18.5065C7.33705 18.6462 7.52713 18.7246 7.72527 18.7246C7.92341 18.7246 8.1135 18.6462 8.25402 18.5065L8.78652 17.974C8.90939 17.8305 8.9736 17.646 8.96631 17.4572C8.95902 17.2685 8.88077 17.0894 8.7472 16.9558C8.61363 16.8223 8.43457 16.744 8.24581 16.7367C8.05706 16.7294 7.8725 16.7936 7.72902 16.9165ZM7.24902 13.1665C7.24902 12.9676 7.17001 12.7768 7.02935 12.6362C6.8887 12.4955 6.69794 12.4165 6.49902 12.4165H5.74902C5.55011 12.4165 5.35935 12.4955 5.21869 12.6362C5.07804 12.7768 4.99902 12.9676 4.99902 13.1665C4.99902 13.3654 5.07804 13.5562 5.21869 13.6968C5.35935 13.8375 5.55011 13.9165 5.74902 13.9165H6.49902C6.69794 13.9165 6.8887 13.8375 7.02935 13.6968C7.17001 13.5562 7.24902 13.3654 7.24902 13.1665ZM12.499 7.9165C12.6979 7.9165 12.8887 7.83749 13.0294 7.69683C13.17 7.55618 13.249 7.36542 13.249 7.1665V6.4165C13.249 6.21759 13.17 6.02683 13.0294 5.88617C12.8887 5.74552 12.6979 5.6665 12.499 5.6665C12.3001 5.6665 12.1093 5.74552 11.9687 5.88617C11.828 6.02683 11.749 6.21759 11.749 6.4165V7.1665C11.749 7.36542 11.828 7.55618 11.9687 7.69683C12.1093 7.83749 12.3001 7.9165 12.499 7.9165ZM7.72902 9.454C7.86872 9.59256 8.05727 9.67068 8.25402 9.6715C8.35273 9.67207 8.45058 9.65316 8.54195 9.61583C8.63333 9.57851 8.71644 9.52351 8.78652 9.454C8.92621 9.31348 9.00462 9.12339 9.00462 8.92525C9.00462 8.72711 8.92621 8.53703 8.78652 8.3965L8.25402 7.864C8.11055 7.74113 7.92599 7.67693 7.73723 7.68422C7.54848 7.69151 7.36942 7.76976 7.23585 7.90333C7.10228 8.0369 7.02403 8.21596 7.01674 8.40471C7.00945 8.59347 7.07365 8.77803 7.19652 8.9215L7.72902 9.454ZM16.729 9.6715C16.9258 9.67068 17.1143 9.59256 17.254 9.454L17.7865 8.9215C17.865 8.85427 17.9288 8.77153 17.9738 8.67848C18.0188 8.58543 18.0441 8.48408 18.0481 8.38079C18.0521 8.2775 18.0347 8.17451 17.997 8.07826C17.9593 7.98202 17.9021 7.89461 17.829 7.82152C17.7559 7.74843 17.6685 7.69123 17.5723 7.65353C17.476 7.61582 17.373 7.59842 17.2697 7.60241C17.1664 7.60639 17.0651 7.63169 16.972 7.67671C16.879 7.72173 16.7963 7.78549 16.729 7.864L16.249 8.3965C16.1093 8.53703 16.0309 8.72711 16.0309 8.92525C16.0309 9.12339 16.1093 9.31348 16.249 9.454C16.3812 9.58553 16.5577 9.66307 16.744 9.6715H16.729ZM19.249 12.4165H18.499C18.3001 12.4165 18.1093 12.4955 17.9687 12.6362C17.828 12.7768 17.749 12.9676 17.749 13.1665C17.749 13.3654 17.828 13.5562 17.9687 13.6968C18.1093 13.8375 18.3001 13.9165 18.499 13.9165H19.249C19.4479 13.9165 19.6387 13.8375 19.7794 13.6968C19.92 13.5562 19.999 13.3654 19.999 13.1665C19.999 12.9676 19.92 12.7768 19.7794 12.6362C19.6387 12.4955 19.4479 12.4165 19.249 12.4165ZM12.499 18.4165C12.3001 18.4165 12.1093 18.4955 11.9687 18.6362C11.828 18.7768 11.749 18.9676 11.749 19.1665V19.9165C11.749 20.1154 11.828 20.3062 11.9687 20.4468C12.1093 20.5875 12.3001 20.6665 12.499 20.6665C12.6979 20.6665 12.8887 20.5875 13.0294 20.4468C13.17 20.3062 13.249 20.1154 13.249 19.9165V19.1665C13.249 18.9676 13.17 18.7768 13.0294 18.6362C12.8887 18.4955 12.6979 18.4165 12.499 18.4165ZM17.269 16.9165C17.1265 16.8372 16.9621 16.8066 16.8006 16.8292C16.6391 16.8517 16.4894 16.9263 16.3741 17.0416C16.2588 17.1569 16.1842 17.3066 16.1617 17.4681C16.1391 17.6296 16.1698 17.794 16.249 17.9365L16.7815 18.469C16.922 18.6087 17.1121 18.6871 17.3103 18.6871C17.5084 18.6871 17.6985 18.6087 17.839 18.469C17.9787 18.3285 18.0571 18.1384 18.0571 17.9403C18.0571 17.7421 17.9787 17.552 17.839 17.4115L17.269 16.9165ZM12.499 9.0415C11.6832 9.0415 10.8856 9.28343 10.2073 9.73669C9.52894 10.19 9.00023 10.8342 8.68802 11.5879C8.37581 12.3417 8.29412 13.1711 8.45328 13.9713C8.61245 14.7714 9.00532 15.5064 9.58221 16.0833C10.1591 16.6602 10.8941 17.0531 11.6943 17.2122C12.4944 17.3714 13.3238 17.2897 14.0776 16.9775C14.8313 16.6653 15.4756 16.1366 15.9288 15.4582C16.3821 14.7799 16.624 13.9824 16.624 13.1665C16.622 12.0731 16.1868 11.025 15.4136 10.2519C14.6405 9.47872 13.5924 9.04349 12.499 9.0415ZM12.499 15.7915C11.9798 15.7915 11.4723 15.6376 11.0407 15.3491C10.609 15.0607 10.2725 14.6507 10.0738 14.171C9.87516 13.6914 9.82318 13.1636 9.92446 12.6544C10.0257 12.1452 10.2758 11.6775 10.6429 11.3103C11.01 10.9432 11.4777 10.6932 11.9869 10.5919C12.4961 10.4907 13.0239 10.5426 13.5036 10.7413C13.9832 10.94 14.3932 11.2765 14.6816 11.7081C14.9701 12.1398 15.124 12.6473 15.124 13.1665C15.124 13.8627 14.8475 14.5304 14.3552 15.0227C13.8629 15.5149 13.1952 15.7915 12.499 15.7915Z" fill="#053536"/>
</svg>
