<svg width="25" height="26" viewBox="0 0 25 26" fill="none" xmlns="http://www.w3.org/2000/svg">
<rect x="-0.000976562" y="0.666992" width="25" height="25" rx="12.5" fill="white"/>
<path d="M7.72902 16.917L7.19652 17.4495C7.05684 17.59 6.97843 17.7801 6.97843 17.9782C6.97843 18.1764 7.05684 18.3665 7.19652 18.507C7.33705 18.6467 7.52713 18.7251 7.72527 18.7251C7.92341 18.7251 8.1135 18.6467 8.25402 18.507L8.78652 17.9745C8.90939 17.831 8.9736 17.6465 8.96631 17.4577C8.95902 17.2689 8.88077 17.0899 8.7472 16.9563C8.61363 16.8227 8.43457 16.7445 8.24581 16.7372C8.05706 16.7299 7.8725 16.7941 7.72902 16.917ZM7.24902 13.167C7.24902 12.9681 7.17001 12.7773 7.02935 12.6367C6.8887 12.496 6.69794 12.417 6.49902 12.417H5.74902C5.55011 12.417 5.35935 12.496 5.21869 12.6367C5.07804 12.7773 4.99902 12.9681 4.99902 13.167C4.99902 13.3659 5.07804 13.5567 5.21869 13.6973C5.35935 13.838 5.55011 13.917 5.74902 13.917H6.49902C6.69794 13.917 6.8887 13.838 7.02935 13.6973C7.17001 13.5567 7.24902 13.3659 7.24902 13.167ZM12.499 7.91699C12.6979 7.91699 12.8887 7.83797 13.0294 7.69732C13.17 7.55667 13.249 7.3659 13.249 7.16699V6.41699C13.249 6.21808 13.17 6.02731 13.0294 5.88666C12.8887 5.74601 12.6979 5.66699 12.499 5.66699C12.3001 5.66699 12.1093 5.74601 11.9687 5.88666C11.828 6.02731 11.749 6.21808 11.749 6.41699V7.16699C11.749 7.3659 11.828 7.55667 11.9687 7.69732C12.1093 7.83797 12.3001 7.91699 12.499 7.91699ZM7.72902 9.45449C7.86872 9.59305 8.05727 9.67116 8.25402 9.67199C8.35273 9.67256 8.45058 9.65364 8.54195 9.61632C8.63333 9.579 8.71644 9.524 8.78652 9.45449C8.92621 9.31397 9.00462 9.12388 9.00462 8.92574C9.00462 8.7276 8.92621 8.53751 8.78652 8.39699L8.25402 7.86449C8.11055 7.74162 7.92599 7.67742 7.73723 7.68471C7.54848 7.692 7.36942 7.77025 7.23585 7.90382C7.10228 8.03739 7.02403 8.21645 7.01674 8.4052C7.00945 8.59396 7.07365 8.77852 7.19652 8.92199L7.72902 9.45449ZM16.729 9.67199C16.9258 9.67116 17.1143 9.59305 17.254 9.45449L17.7865 8.92199C17.865 8.85476 17.9288 8.77202 17.9738 8.67897C18.0188 8.58592 18.0441 8.48457 18.0481 8.38128C18.0521 8.27799 18.0347 8.17499 17.997 8.07875C17.9593 7.98251 17.9021 7.8951 17.829 7.822C17.7559 7.74891 17.6685 7.69172 17.5723 7.65401C17.476 7.61631 17.373 7.5989 17.2697 7.60289C17.1664 7.60688 17.0651 7.63218 16.972 7.6772C16.879 7.72222 16.7963 7.78598 16.729 7.86449L16.249 8.39699C16.1093 8.53751 16.0309 8.7276 16.0309 8.92574C16.0309 9.12388 16.1093 9.31397 16.249 9.45449C16.3812 9.58601 16.5577 9.66356 16.744 9.67199H16.729ZM19.249 12.417H18.499C18.3001 12.417 18.1093 12.496 17.9687 12.6367C17.828 12.7773 17.749 12.9681 17.749 13.167C17.749 13.3659 17.828 13.5567 17.9687 13.6973C18.1093 13.838 18.3001 13.917 18.499 13.917H19.249C19.4479 13.917 19.6387 13.838 19.7794 13.6973C19.92 13.5567 19.999 13.3659 19.999 13.167C19.999 12.9681 19.92 12.7773 19.7794 12.6367C19.6387 12.496 19.4479 12.417 19.249 12.417ZM12.499 18.417C12.3001 18.417 12.1093 18.496 11.9687 18.6367C11.828 18.7773 11.749 18.9681 11.749 19.167V19.917C11.749 20.1159 11.828 20.3067 11.9687 20.4473C12.1093 20.588 12.3001 20.667 12.499 20.667C12.6979 20.667 12.8887 20.588 13.0294 20.4473C13.17 20.3067 13.249 20.1159 13.249 19.917V19.167C13.249 18.9681 13.17 18.7773 13.0294 18.6367C12.8887 18.496 12.6979 18.417 12.499 18.417ZM17.269 16.917C17.1265 16.8377 16.9621 16.8071 16.8006 16.8296C16.6391 16.8522 16.4894 16.9268 16.3741 17.0421C16.2588 17.1574 16.1842 17.3071 16.1617 17.4686C16.1391 17.6301 16.1698 17.7945 16.249 17.937L16.7815 18.4695C16.922 18.6092 17.1121 18.6876 17.3103 18.6876C17.5084 18.6876 17.6985 18.6092 17.839 18.4695C17.9787 18.329 18.0571 18.1389 18.0571 17.9407C18.0571 17.7426 17.9787 17.5525 17.839 17.412L17.269 16.917ZM12.499 9.04199C11.6832 9.04199 10.8856 9.28392 10.2073 9.73718C9.52894 10.1904 9.00023 10.8347 8.68802 11.5884C8.37581 12.3422 8.29412 13.1716 8.45328 13.9717C8.61245 14.7719 9.00532 15.5069 9.58221 16.0838C10.1591 16.6607 10.8941 17.0536 11.6943 17.2127C12.4944 17.3719 13.3238 17.2902 14.0776 16.978C14.8313 16.6658 15.4756 16.1371 15.9288 15.4587C16.3821 14.7804 16.624 13.9828 16.624 13.167C16.622 12.0736 16.1868 11.0255 15.4136 10.2524C14.6405 9.47921 13.5924 9.04397 12.499 9.04199ZM12.499 15.792C11.9798 15.792 11.4723 15.638 11.0407 15.3496C10.609 15.0612 10.2725 14.6512 10.0738 14.1715C9.87516 13.6919 9.82318 13.1641 9.92446 12.6549C10.0257 12.1457 10.2758 11.6779 10.6429 11.3108C11.01 10.9437 11.4777 10.6937 11.9869 10.5924C12.4961 10.4911 13.0239 10.5431 13.5036 10.7418C13.9832 10.9405 14.3932 11.2769 14.6816 11.7086C14.9701 12.1403 15.124 12.6478 15.124 13.167C15.124 13.8632 14.8475 14.5309 14.3552 15.0231C13.8629 15.5154 13.1952 15.792 12.499 15.792Z" fill="#053536"/>
</svg>
