<svg width="25" height="26" viewBox="0 0 25 26" fill="none" xmlns="http://www.w3.org/2000/svg">
<rect x="0.000488281" y="0.666504" width="25" height="25" rx="12.5" fill="white"/>
<path d="M7.73049 16.9165L7.19799 17.449C7.0583 17.5895 6.97989 17.7796 6.97989 17.9778C6.97989 18.1759 7.0583 18.366 7.19799 18.5065C7.33851 18.6462 7.5286 18.7246 7.72674 18.7246C7.92488 18.7246 8.11497 18.6462 8.25549 18.5065L8.78799 17.974C8.91086 17.8305 8.97506 17.646 8.96777 17.4572C8.96048 17.2685 8.88223 17.0894 8.74866 16.9558C8.61509 16.8223 8.43604 16.744 8.24728 16.7367C8.05852 16.7294 7.87396 16.7936 7.73049 16.9165ZM7.25049 13.1665C7.25049 12.9676 7.17147 12.7768 7.03082 12.6362C6.89017 12.4955 6.6994 12.4165 6.50049 12.4165H5.75049C5.55158 12.4165 5.36081 12.4955 5.22016 12.6362C5.07951 12.7768 5.00049 12.9676 5.00049 13.1665C5.00049 13.3654 5.07951 13.5562 5.22016 13.6968C5.36081 13.8375 5.55158 13.9165 5.75049 13.9165H6.50049C6.6994 13.9165 6.89017 13.8375 7.03082 13.6968C7.17147 13.5562 7.25049 13.3654 7.25049 13.1665ZM12.5005 7.9165C12.6994 7.9165 12.8902 7.83749 13.0308 7.69683C13.1715 7.55618 13.2505 7.36542 13.2505 7.1665V6.4165C13.2505 6.21759 13.1715 6.02683 13.0308 5.88617C12.8902 5.74552 12.6994 5.6665 12.5005 5.6665C12.3016 5.6665 12.1108 5.74552 11.9702 5.88617C11.8295 6.02683 11.7505 6.21759 11.7505 6.4165V7.1665C11.7505 7.36542 11.8295 7.55618 11.9702 7.69683C12.1108 7.83749 12.3016 7.9165 12.5005 7.9165ZM7.73049 9.454C7.87018 9.59256 8.05873 9.67068 8.25549 9.6715C8.35419 9.67207 8.45204 9.65316 8.54342 9.61583C8.6348 9.57851 8.71791 9.52351 8.78799 9.454C8.92768 9.31348 9.00608 9.12339 9.00608 8.92525C9.00608 8.72711 8.92768 8.53703 8.78799 8.3965L8.25549 7.864C8.11201 7.74113 7.92746 7.67693 7.7387 7.68422C7.54994 7.69151 7.37089 7.76976 7.23732 7.90333C7.10374 8.0369 7.0255 8.21596 7.0182 8.40471C7.01091 8.59347 7.07512 8.77803 7.19799 8.9215L7.73049 9.454ZM16.7305 9.6715C16.9272 9.67068 17.1158 9.59256 17.2555 9.454L17.788 8.9215C17.8665 8.85427 17.9303 8.77153 17.9753 8.67848C18.0203 8.58543 18.0456 8.48408 18.0496 8.38079C18.0536 8.2775 18.0362 8.17451 17.9985 8.07826C17.9608 7.98202 17.9036 7.89461 17.8305 7.82152C17.7574 7.74843 17.67 7.69123 17.5737 7.65353C17.4775 7.61582 17.3745 7.59842 17.2712 7.60241C17.1679 7.60639 17.0666 7.63169 16.9735 7.67671C16.8805 7.72173 16.7977 7.78549 16.7305 7.864L16.2505 8.3965C16.1108 8.53703 16.0324 8.72711 16.0324 8.92525C16.0324 9.12339 16.1108 9.31348 16.2505 9.454C16.3827 9.58553 16.5592 9.66307 16.7455 9.6715H16.7305ZM19.2505 12.4165H18.5005C18.3016 12.4165 18.1108 12.4955 17.9702 12.6362C17.8295 12.7768 17.7505 12.9676 17.7505 13.1665C17.7505 13.3654 17.8295 13.5562 17.9702 13.6968C18.1108 13.8375 18.3016 13.9165 18.5005 13.9165H19.2505C19.4494 13.9165 19.6402 13.8375 19.7808 13.6968C19.9215 13.5562 20.0005 13.3654 20.0005 13.1665C20.0005 12.9676 19.9215 12.7768 19.7808 12.6362C19.6402 12.4955 19.4494 12.4165 19.2505 12.4165ZM12.5005 18.4165C12.3016 18.4165 12.1108 18.4955 11.9702 18.6362C11.8295 18.7768 11.7505 18.9676 11.7505 19.1665V19.9165C11.7505 20.1154 11.8295 20.3062 11.9702 20.4468C12.1108 20.5875 12.3016 20.6665 12.5005 20.6665C12.6994 20.6665 12.8902 20.5875 13.0308 20.4468C13.1715 20.3062 13.2505 20.1154 13.2505 19.9165V19.1665C13.2505 18.9676 13.1715 18.7768 13.0308 18.6362C12.8902 18.4955 12.6994 18.4165 12.5005 18.4165ZM17.2705 16.9165C17.128 16.8372 16.9636 16.8066 16.8021 16.8292C16.6406 16.8517 16.4909 16.9263 16.3756 17.0416C16.2603 17.1569 16.1857 17.3066 16.1631 17.4681C16.1406 17.6296 16.1712 17.794 16.2505 17.9365L16.783 18.469C16.9235 18.6087 17.1136 18.6871 17.3117 18.6871C17.5099 18.6871 17.7 18.6087 17.8405 18.469C17.9802 18.3285 18.0586 18.1384 18.0586 17.9403C18.0586 17.7421 17.9802 17.552 17.8405 17.4115L17.2705 16.9165ZM12.5005 9.0415C11.6846 9.0415 10.8871 9.28343 10.2088 9.73669C9.53041 10.19 9.0017 10.8342 8.68949 11.5879C8.37727 12.3417 8.29558 13.1711 8.45475 13.9713C8.61391 14.7714 9.00678 15.5064 9.58367 16.0833C10.1606 16.6602 10.8956 17.0531 11.6957 17.2122C12.4959 17.3714 13.3253 17.2897 14.0791 16.9775C14.8328 16.6653 15.477 16.1366 15.9303 15.4582C16.3836 14.7799 16.6255 13.9824 16.6255 13.1665C16.6235 12.0731 16.1883 11.025 15.4151 10.2519C14.642 9.47872 13.5939 9.04349 12.5005 9.0415ZM12.5005 15.7915C11.9813 15.7915 11.4738 15.6376 11.0421 15.3491C10.6104 15.0607 10.274 14.6507 10.0753 14.171C9.87662 13.6914 9.82464 13.1636 9.92593 12.6544C10.0272 12.1452 10.2772 11.6775 10.6443 11.3103C11.0114 10.9432 11.4792 10.6932 11.9884 10.5919C12.4976 10.4907 13.0254 10.5426 13.505 10.7413C13.9847 10.94 14.3947 11.2765 14.6831 11.7081C14.9715 12.1398 15.1255 12.6473 15.1255 13.1665C15.1255 13.8627 14.8489 14.5304 14.3566 15.0227C13.8644 15.5149 13.1967 15.7915 12.5005 15.7915Z" fill="#053536"/>
</svg>
