<svg width="25" height="26" viewBox="0 0 25 26" fill="none" xmlns="http://www.w3.org/2000/svg">
<rect x="-0.000976562" y="0.666748" width="25" height="25" rx="12.5" fill="white"/>
<path d="M7.72902 16.9167L7.19652 17.4492C7.05684 17.5898 6.97843 17.7799 6.97843 17.978C6.97843 18.1761 7.05684 18.3662 7.19652 18.5067C7.33705 18.6464 7.52713 18.7248 7.72527 18.7248C7.92341 18.7248 8.1135 18.6464 8.25402 18.5067L8.78652 17.9742C8.90939 17.8308 8.9736 17.6462 8.96631 17.4575C8.95902 17.2687 8.88077 17.0896 8.7472 16.9561C8.61363 16.8225 8.43457 16.7443 8.24581 16.737C8.05706 16.7297 7.8725 16.7939 7.72902 16.9167ZM7.24902 13.1667C7.24902 12.9678 7.17001 12.7771 7.02935 12.6364C6.8887 12.4958 6.69794 12.4167 6.49902 12.4167H5.74902C5.55011 12.4167 5.35935 12.4958 5.21869 12.6364C5.07804 12.7771 4.99902 12.9678 4.99902 13.1667C4.99902 13.3657 5.07804 13.5564 5.21869 13.6971C5.35935 13.8377 5.55011 13.9167 5.74902 13.9167H6.49902C6.69794 13.9167 6.8887 13.8377 7.02935 13.6971C7.17001 13.5564 7.24902 13.3657 7.24902 13.1667ZM12.499 7.91675C12.6979 7.91675 12.8887 7.83773 13.0294 7.69708C13.17 7.55643 13.249 7.36566 13.249 7.16675V6.41675C13.249 6.21784 13.17 6.02707 13.0294 5.88642C12.8887 5.74577 12.6979 5.66675 12.499 5.66675C12.3001 5.66675 12.1093 5.74577 11.9687 5.88642C11.828 6.02707 11.749 6.21784 11.749 6.41675V7.16675C11.749 7.36566 11.828 7.55643 11.9687 7.69708C12.1093 7.83773 12.3001 7.91675 12.499 7.91675ZM7.72902 9.45425C7.86872 9.59281 8.05727 9.67092 8.25402 9.67175C8.35273 9.67232 8.45058 9.6534 8.54195 9.61608C8.63333 9.57875 8.71644 9.52376 8.78652 9.45425C8.92621 9.31373 9.00462 9.12364 9.00462 8.9255C9.00462 8.72736 8.92621 8.53727 8.78652 8.39675L8.25402 7.86425C8.11055 7.74138 7.92599 7.67717 7.73723 7.68446C7.54848 7.69176 7.36942 7.77 7.23585 7.90358C7.10228 8.03715 7.02403 8.2162 7.01674 8.40496C7.00945 8.59371 7.07365 8.77827 7.19652 8.92175L7.72902 9.45425ZM16.729 9.67175C16.9258 9.67092 17.1143 9.59281 17.254 9.45425L17.7865 8.92175C17.865 8.85451 17.9288 8.77177 17.9738 8.67873C18.0188 8.58568 18.0441 8.48433 18.0481 8.38104C18.0521 8.27775 18.0347 8.17475 17.997 8.07851C17.9593 7.98226 17.9021 7.89485 17.829 7.82176C17.7559 7.74867 17.6685 7.69148 17.5723 7.65377C17.476 7.61606 17.373 7.59866 17.2697 7.60265C17.1664 7.60664 17.0651 7.63194 16.972 7.67695C16.879 7.72197 16.7963 7.78574 16.729 7.86425L16.249 8.39675C16.1093 8.53727 16.0309 8.72736 16.0309 8.9255C16.0309 9.12364 16.1093 9.31373 16.249 9.45425C16.3812 9.58577 16.5577 9.66331 16.744 9.67175H16.729ZM19.249 12.4167H18.499C18.3001 12.4167 18.1093 12.4958 17.9687 12.6364C17.828 12.7771 17.749 12.9678 17.749 13.1667C17.749 13.3657 17.828 13.5564 17.9687 13.6971C18.1093 13.8377 18.3001 13.9167 18.499 13.9167H19.249C19.4479 13.9167 19.6387 13.8377 19.7794 13.6971C19.92 13.5564 19.999 13.3657 19.999 13.1667C19.999 12.9678 19.92 12.7771 19.7794 12.6364C19.6387 12.4958 19.4479 12.4167 19.249 12.4167ZM12.499 18.4167C12.3001 18.4167 12.1093 18.4958 11.9687 18.6364C11.828 18.7771 11.749 18.9678 11.749 19.1667V19.9167C11.749 20.1157 11.828 20.3064 11.9687 20.4471C12.1093 20.5877 12.3001 20.6667 12.499 20.6667C12.6979 20.6667 12.8887 20.5877 13.0294 20.4471C13.17 20.3064 13.249 20.1157 13.249 19.9167V19.1667C13.249 18.9678 13.17 18.7771 13.0294 18.6364C12.8887 18.4958 12.6979 18.4167 12.499 18.4167ZM17.269 16.9167C17.1265 16.8375 16.9621 16.8068 16.8006 16.8294C16.6391 16.852 16.4894 16.9266 16.3741 17.0418C16.2588 17.1571 16.1842 17.3069 16.1617 17.4683C16.1391 17.6298 16.1698 17.7943 16.249 17.9367L16.7815 18.4692C16.922 18.6089 17.1121 18.6873 17.3103 18.6873C17.5084 18.6873 17.6985 18.6089 17.839 18.4692C17.9787 18.3287 18.0571 18.1386 18.0571 17.9405C18.0571 17.7424 17.9787 17.5523 17.839 17.4117L17.269 16.9167ZM12.499 9.04175C11.6832 9.04175 10.8856 9.28367 10.2073 9.73694C9.52894 10.1902 9.00023 10.8344 8.68802 11.5882C8.37581 12.3419 8.29412 13.1713 8.45328 13.9715C8.61245 14.7717 9.00532 15.5067 9.58221 16.0836C10.1591 16.6605 10.8941 17.0533 11.6943 17.2125C12.4944 17.3717 13.3238 17.29 14.0776 16.9778C14.8313 16.6655 15.4756 16.1368 15.9288 15.4585C16.3821 14.7801 16.624 13.9826 16.624 13.1667C16.622 12.0733 16.1868 11.0253 15.4136 10.2521C14.6405 9.47896 13.5924 9.04373 12.499 9.04175ZM12.499 15.7917C11.9798 15.7917 11.4723 15.6378 11.0407 15.3494C10.609 15.0609 10.2725 14.6509 10.0738 14.1713C9.87516 13.6916 9.82318 13.1638 9.92446 12.6546C10.0257 12.1454 10.2758 11.6777 10.6429 11.3106C11.01 10.9435 11.4777 10.6935 11.9869 10.5922C12.4961 10.4909 13.0239 10.5429 13.5036 10.7416C13.9832 10.9402 14.3932 11.2767 14.6816 11.7084C14.9701 12.1401 15.124 12.6476 15.124 13.1667C15.124 13.8629 14.8475 14.5306 14.3552 15.0229C13.8629 15.5152 13.1952 15.7917 12.499 15.7917Z" fill="#053536"/>
</svg>
