<svg width="15" height="18" viewBox="0 0 15 18" fill="none" xmlns="http://www.w3.org/2000/svg">
<path fill-rule="evenodd" clip-rule="evenodd" d="M3.19678 0.000976562C3.39778 0.61913 3.60578 1.2478 3.81378 1.86595C4.11778 2.79318 4.30778 3.49123 4.39378 3.98008V6.68293H5.34178V3.98008L6.48978 0.000976562H5.52178L4.87678 2.62393L4.20378 0.000976562H3.19678ZM7.76076 6.75173C8.19776 6.75173 8.52976 6.58248 8.76676 6.24291C8.94776 5.99376 9.03176 5.59427 9.03176 5.06548V3.32035C9.03176 2.79156 8.94776 2.40258 8.76676 2.15343C8.52876 1.81597 8.19676 1.64566 7.76076 1.64566C7.33276 1.64566 7.00076 1.81491 6.76576 2.15343C6.58476 2.40363 6.49976 2.79261 6.49976 3.3214V5.06653C6.49976 5.59532 6.58476 5.9843 6.76576 6.24397C7.00076 6.58248 7.33276 6.75173 7.76076 6.75173ZM7.35274 3.14219C7.35274 2.68383 7.48574 2.45465 7.76074 2.45465C8.04574 2.45465 8.16874 2.68383 8.16874 3.14219V5.23634C8.16874 5.69576 8.04574 5.9344 7.76074 5.9344C7.48574 5.9344 7.35274 5.6947 7.35274 5.23634V3.14219ZM9.73462 5.6349C9.73462 5.99338 9.76162 6.23202 9.80962 6.38236C9.89462 6.63256 10.0936 6.75136 10.3686 6.75136C10.6836 6.75136 11.0056 6.55161 11.3466 6.1332V6.68197H12.2096V1.7052H11.3466V5.50454C11.1566 5.79364 10.9766 5.93346 10.8066 5.93346C10.6926 5.93346 10.6266 5.85461 10.6076 5.71479C10.5976 5.69377 10.5976 5.57497 10.5976 5.36472V1.7052H9.73462V5.6349ZM13.0928 12.4167V12.875H12.2388V12.4167C12.2388 11.9678 12.3818 11.7376 12.6658 11.7376C12.9498 11.7386 13.0928 11.9678 13.0928 12.4167ZM14.7427 9.23748C14.5717 8.44901 13.9547 7.87081 13.2247 7.78145C11.4787 7.58171 9.71369 7.58171 7.95869 7.58171C6.20369 7.58171 4.43869 7.58171 2.70269 7.78145C1.96469 7.87081 1.35669 8.44901 1.17669 9.23748C0.939687 10.3539 0.929688 11.5713 0.929688 12.7277C0.929688 13.8747 0.929688 15.1005 1.17669 16.218C1.34769 17.0065 1.96469 17.5847 2.69469 17.6646C4.43969 17.8738 6.20469 17.8738 7.95969 17.8738C9.71469 17.8738 11.4797 17.8738 13.2257 17.6646C13.9547 17.5847 14.5627 17.0065 14.7437 16.218C14.9807 15.1015 14.9907 13.8747 14.9907 12.7277L14.9907 12.713V12.713C14.9897 11.561 14.9886 10.3492 14.7427 9.23748ZM3.92867 10.2442H4.94267V9.30647H1.98267V10.2442H2.97967V15.919H3.92867V10.2442ZM7.50467 15.9175H6.65967V15.3792C6.31767 15.7882 5.99567 15.9879 5.69167 15.9879C5.41767 15.9879 5.21767 15.8681 5.14167 15.6189C5.09367 15.4696 5.06567 15.2394 5.06567 14.8914V10.9922H5.91067V14.6223V14.6223C5.91067 14.8326 5.91067 14.9419 5.91967 14.9724C5.93967 15.1111 6.00567 15.1816 6.11867 15.1816C6.29067 15.1816 6.47067 15.0428 6.65967 14.7632V10.9933H7.50467V15.9175ZM10.6446 15.4396C10.7106 15.2304 10.7306 14.9024 10.7306 14.443V12.4782C10.7306 12.0188 10.7106 11.6908 10.6446 11.491C10.5406 11.122 10.3026 10.9328 9.97063 10.9328C9.65763 10.9328 9.36263 11.1115 9.08763 11.4711V9.30647H8.24463V15.919H9.08763V15.4396C9.37263 15.8086 9.66763 15.9884 9.97063 15.9884C10.3026 15.9884 10.5406 15.7992 10.6446 15.4396ZM13.9368 13.625H12.2388V14.4924C12.2388 14.9518 12.3818 15.1799 12.6758 15.1799C12.8848 15.1799 13.0078 15.0611 13.0558 14.8214C13.0648 14.772 13.0748 14.5723 13.0748 14.2127H13.9378V14.3431C13.9378 14.6322 13.9378 14.8319 13.9188 14.9213C13.8988 15.12 13.8228 15.2997 13.7198 15.4595C13.4908 15.8086 13.1408 15.9883 12.6958 15.9883C12.2498 15.9883 11.9168 15.8191 11.6708 15.4795C11.4908 15.2398 11.3958 14.8508 11.3958 14.322V12.5969C11.3958 12.0681 11.4818 11.6896 11.6618 11.4394C11.9088 11.0999 12.2408 10.9306 12.6778 10.9306C13.1058 10.9306 13.4368 11.0999 13.6828 11.4394C13.8548 11.6886 13.9398 12.067 13.9398 12.5969V13.625H13.9368ZM9.88557 14.5118V12.4072C9.88557 11.9688 9.76157 11.7396 9.51557 11.7396C9.37257 11.7396 9.23057 11.809 9.08757 11.9593V14.9607C9.23057 15.11 9.37257 15.1794 9.51557 15.1794C9.76157 15.1794 9.88557 14.9607 9.88557 14.5118Z" fill="white"/>
</svg>
