<svg width="15" height="19" viewBox="0 0 15 19" fill="none" xmlns="http://www.w3.org/2000/svg">
<path fill-rule="evenodd" clip-rule="evenodd" d="M3.19678 0.900391C3.39778 1.51854 3.60578 2.14721 3.81378 2.76537C4.11778 3.6926 4.30778 4.39065 4.39378 4.87949V7.58234H5.34178V4.87949L6.48978 0.900391H5.52178L4.87678 3.52334L4.20378 0.900391H3.19678ZM7.76076 7.65115C8.19776 7.65115 8.52976 7.48189 8.76676 7.14233C8.94776 6.89317 9.03176 6.49369 9.03176 5.96489V4.21976C9.03176 3.69097 8.94776 3.302 8.76676 3.05284C8.52876 2.71538 8.19676 2.54507 7.76076 2.54507C7.33276 2.54507 7.00076 2.71433 6.76576 3.05284C6.58476 3.30305 6.49976 3.69202 6.49976 4.22082V5.96594C6.49976 6.49474 6.58476 6.88371 6.76576 7.14338C7.00076 7.48189 7.33276 7.65115 7.76076 7.65115ZM7.35274 4.0416C7.35274 3.58325 7.48574 3.35407 7.76074 3.35407C8.04574 3.35407 8.16874 3.58325 8.16874 4.0416V6.13576C8.16874 6.59517 8.04574 6.83381 7.76074 6.83381C7.48574 6.83381 7.35274 6.59412 7.35274 6.13576V4.0416ZM9.73462 6.53431C9.73462 6.8928 9.76162 7.13144 9.80962 7.28177C9.89462 7.53198 10.0936 7.65077 10.3686 7.65077C10.6836 7.65077 11.0056 7.45103 11.3466 7.03262V7.58139H12.2096V2.60462H11.3466V6.40395C11.1566 6.69305 10.9766 6.83287 10.8066 6.83287C10.6926 6.83287 10.6266 6.75403 10.6076 6.61421C10.5976 6.59318 10.5976 6.47439 10.5976 6.26413V2.60462H9.73462V6.53431ZM13.0928 13.3161V13.7745H12.2388V13.3161C12.2388 12.8672 12.3818 12.637 12.6658 12.637C12.9498 12.638 13.0928 12.8672 13.0928 13.3161ZM14.7427 10.1369C14.5717 9.34843 13.9547 8.77022 13.2247 8.68086C11.4787 8.48112 9.71369 8.48112 7.95869 8.48112C6.20369 8.48112 4.43869 8.48112 2.70269 8.68086C1.96469 8.77022 1.35669 9.34843 1.17669 10.1369C0.939687 11.2534 0.929688 12.4707 0.929688 13.6271C0.929688 14.7741 0.929688 15.9999 1.17669 17.1174C1.34769 17.9059 1.96469 18.4841 2.69469 18.564C4.43969 18.7732 6.20469 18.7732 7.95969 18.7732C9.71469 18.7732 11.4797 18.7732 13.2257 18.564C13.9547 18.4841 14.5627 17.9059 14.7437 17.1174C14.9807 16.0009 14.9907 14.7741 14.9907 13.6271L14.9907 13.6124V13.6124C14.9897 12.4604 14.9886 11.2486 14.7427 10.1369ZM3.92867 11.1436H4.94267V10.2059H1.98267V11.1436H2.97967V16.8184H3.92867V11.1436ZM7.50467 16.8169H6.65967V16.2786C6.31767 16.6876 5.99567 16.8873 5.69167 16.8873C5.41767 16.8873 5.21767 16.7675 5.14167 16.5183C5.09367 16.369 5.06567 16.1388 5.06567 15.7908V11.8916H5.91067V15.5217V15.5217C5.91067 15.732 5.91067 15.8413 5.91967 15.8718C5.93967 16.0105 6.00567 16.081 6.11867 16.081C6.29067 16.081 6.47067 15.9422 6.65967 15.6626V11.8927H7.50467V16.8169ZM10.6446 16.3391C10.7106 16.1299 10.7306 15.8019 10.7306 15.3424V13.3776C10.7306 12.9182 10.7106 12.5902 10.6446 12.3904C10.5406 12.0214 10.3026 11.8322 9.97063 11.8322C9.65763 11.8322 9.36263 12.0109 9.08763 12.3705V10.2059H8.24463V16.8184H9.08763V16.3391C9.37263 16.7081 9.66763 16.8878 9.97063 16.8878C10.3026 16.8878 10.5406 16.6986 10.6446 16.3391ZM13.9368 14.5245H12.2388V15.3918C12.2388 15.8512 12.3818 16.0793 12.6758 16.0793C12.8848 16.0793 13.0078 15.9605 13.0558 15.7208C13.0648 15.6714 13.0748 15.4717 13.0748 15.1121H13.9378V15.2425C13.9378 15.5316 13.9378 15.7313 13.9188 15.8207C13.8988 16.0194 13.8228 16.1992 13.7198 16.359C13.4908 16.708 13.1408 16.8877 12.6958 16.8877C12.2498 16.8877 11.9168 16.7185 11.6708 16.3789C11.4908 16.1392 11.3958 15.7503 11.3958 15.2215V13.4963C11.3958 12.9675 11.4818 12.5891 11.6618 12.3388C11.9088 11.9993 12.2408 11.83 12.6778 11.83C13.1058 11.83 13.4368 11.9993 13.6828 12.3388C13.8548 12.588 13.9398 12.9665 13.9398 13.4963V14.5245H13.9368ZM9.88557 15.4113V13.3066C9.88557 12.8682 9.76157 12.639 9.51557 12.639C9.37257 12.639 9.23057 12.7084 9.08757 12.8587V15.8602C9.23057 16.0094 9.37257 16.0788 9.51557 16.0788C9.76157 16.0788 9.88557 15.8602 9.88557 15.4113Z" fill="white"/>
</svg>
