<svg width="31" height="31" viewBox="0 0 31 31" fill="none" xmlns="http://www.w3.org/2000/svg">
<g clip-path="url(#clip0_593_9681)">
<path d="M8.26654 15.4999L14.4665 20.6665L22.7332 10.3332M15.4999 29.9665C13.6001 29.9665 11.7189 29.5923 9.96372 28.8653C8.20854 28.1383 6.61375 27.0727 5.27039 25.7293C3.92704 24.386 2.86143 22.7912 2.13441 21.036C1.40739 19.2808 1.0332 17.3997 1.0332 15.4999C1.0332 13.6001 1.40739 11.7189 2.13441 9.96372C2.86143 8.20854 3.92704 6.61375 5.27039 5.27039C6.61375 3.92704 8.20854 2.86143 9.96372 2.13441C11.7189 1.40739 13.6001 1.0332 15.4999 1.0332C19.3367 1.0332 23.0163 2.55737 25.7293 5.27039C28.4424 7.98342 29.9665 11.6631 29.9665 15.4999C29.9665 19.3367 28.4424 23.0163 25.7293 25.7293C23.0163 28.4424 19.3367 29.9665 15.4999 29.9665Z" stroke="#52E221"/>
</g>
<defs>
<clipPath id="clip0_593_9681">
<rect width="31" height="31" fill="white"/>
</clipPath>
</defs>
</svg>
