<svg width="18" height="17" viewBox="0 0 18 17" fill="none" xmlns="http://www.w3.org/2000/svg">
<path d="M14.0347 10.4155C13.5499 10.4187 13.0719 10.5293 12.6349 10.7392C12.198 10.9492 11.813 11.2534 11.5076 11.6298L7.32301 9.70167C7.51976 9.09922 7.51976 8.4498 7.32301 7.84734L11.5076 5.91917C12.0012 6.51482 12.6894 6.91696 13.4506 7.05461C14.2119 7.19226 14.9973 7.05657 15.6683 6.67149C16.3392 6.28641 16.8526 5.67669 17.1178 4.94994C17.3829 4.2232 17.3829 3.42614 17.1176 2.69945C16.8523 1.97275 16.3388 1.36313 15.6678 0.97817C14.9967 0.593212 14.2113 0.457665 13.45 0.595452C12.6888 0.733239 12.0007 1.1355 11.5072 1.73125C11.0137 2.32699 10.7465 3.07792 10.7527 3.85151C10.7552 4.04698 10.7744 4.24187 10.8101 4.43406L6.4779 6.42788C6.01602 5.97626 5.43114 5.67098 4.79653 5.55029C4.16192 5.42961 3.50581 5.49888 2.9104 5.74943C2.31499 5.99998 1.80676 6.42067 1.44938 6.95879C1.092 7.49691 0.901367 8.12853 0.901367 8.77451C0.901367 9.42049 1.092 10.0521 1.44938 10.5902C1.80676 11.1283 2.31499 11.549 2.9104 11.7996C3.50581 12.0501 4.16192 12.1194 4.79653 11.9987C5.43114 11.878 6.01602 11.5728 6.4779 11.1211L10.8101 13.115C10.7744 13.3071 10.7552 13.502 10.7527 13.6975C10.7527 14.3466 10.9452 14.9812 11.3058 15.5209C11.6665 16.0606 12.179 16.4813 12.7787 16.7297C13.3784 16.9781 14.0383 17.0431 14.675 16.9165C15.3116 16.7898 15.8964 16.4772 16.3554 16.0182C16.8144 15.5592 17.127 14.9744 17.2536 14.3378C17.3803 13.7012 17.3153 13.0413 17.0669 12.4415C16.8185 11.8418 16.3978 11.3293 15.8581 10.9686C15.3184 10.608 14.6838 10.4155 14.0347 10.4155ZM14.0347 2.21051C14.3593 2.21051 14.6765 2.30675 14.9464 2.48706C15.2163 2.66738 15.4266 2.92367 15.5508 3.22352C15.675 3.52338 15.7075 3.85333 15.6442 4.17165C15.5809 4.48997 15.4246 4.78237 15.1951 5.01187C14.9656 5.24137 14.6732 5.39766 14.3548 5.46098C14.0365 5.52429 13.7066 5.4918 13.4067 5.36759C13.1069 5.24339 12.8506 5.03306 12.6703 4.7632C12.4899 4.49334 12.3937 4.17607 12.3937 3.85151C12.3937 3.41629 12.5666 2.99889 12.8743 2.69114C13.1821 2.3834 13.5995 2.21051 14.0347 2.21051ZM4.1887 10.4155C3.86414 10.4155 3.54687 10.3193 3.27701 10.139C3.00715 9.95863 2.79682 9.70234 2.67261 9.40249C2.54841 9.10264 2.51591 8.77269 2.57923 8.45436C2.64255 8.13604 2.79884 7.84364 3.02834 7.61415C3.25784 7.38465 3.55023 7.22836 3.86856 7.16504C4.18688 7.10172 4.51683 7.13422 4.81668 7.25842C5.11654 7.38262 5.37283 7.59296 5.55314 7.86282C5.73346 8.13268 5.8297 8.44995 5.8297 8.77451C5.8297 9.20973 5.65681 9.62712 5.34906 9.93487C5.04132 10.2426 4.62392 10.4155 4.1887 10.4155ZM14.0347 15.3385C13.7101 15.3385 13.3929 15.2423 13.123 15.062C12.8532 14.8816 12.6428 14.6253 12.5186 14.3255C12.3944 14.0256 12.3619 13.6957 12.4252 13.3774C12.4886 13.059 12.6448 12.7666 12.8743 12.5371C13.1038 12.3076 13.3962 12.1514 13.7146 12.088C14.0329 12.0247 14.3628 12.0572 14.6627 12.1814C14.9625 12.3056 15.2188 12.516 15.3991 12.7858C15.5795 13.0557 15.6757 13.373 15.6757 13.6975C15.6757 14.1327 15.5028 14.5501 15.1951 14.8579C14.8873 15.1656 14.4699 15.3385 14.0347 15.3385Z" fill="#A6A9B8"/>
</svg>
