<svg width="22" height="18" viewBox="0 0 22 18" fill="none" xmlns="http://www.w3.org/2000/svg">
<path d="M12.5 8C13.4283 8 14.3185 7.63125 14.9749 6.97487C15.6313 6.3185 16 5.42826 16 4.5C16 3.57174 15.6313 2.6815 14.9749 2.02513C14.3185 1.36875 13.4283 1 12.5 1M12.143 17H2.857C1.831 17 1 16.233 1 15.286C1 12.919 3.079 11 5.643 11H9.357C10.3511 10.9964 11.3228 11.2953 12.143 11.857M18 11V17M21 14H15M11 4.5C11 5.42826 10.6313 6.3185 9.97487 6.97487C9.3185 7.63125 8.42826 8 7.5 8C6.57174 8 5.6815 7.63125 5.02513 6.97487C4.36875 6.3185 4 5.42826 4 4.5C4 3.57174 4.36875 2.6815 5.02513 2.02513C5.6815 1.36875 6.57174 1 7.5 1C8.42826 1 9.3185 1.36875 9.97487 2.02513C10.6313 2.6815 11 3.57174 11 4.5Z" stroke="#FF5353" stroke-width="1.5" stroke-linecap="round" stroke-linejoin="round"/>
</svg>
