<svg width="24" height="15" viewBox="0 0 24 15" fill="none" xmlns="http://www.w3.org/2000/svg">
<path d="M0.975107 4.66179C1.29153 4.40199 1.70884 4.26894 2.13525 4.29189C2.56167 4.31484 2.96229 4.49191 3.249 4.78416L8.65514 10.2964L20.5849 0.49734C20.7416 0.368579 20.9247 0.269588 21.1238 0.206019C21.3229 0.142449 21.5341 0.115546 21.7453 0.126845C21.9566 0.138145 22.1637 0.187426 22.3549 0.271874C22.5461 0.356323 22.7176 0.474285 22.8596 0.619025C23.0017 0.763766 23.1115 0.932451 23.1828 1.11545C23.2541 1.29845 23.2855 1.49217 23.2751 1.68557C23.2648 1.87896 23.2129 2.06824 23.1226 2.24259C23.0322 2.41694 22.905 2.57294 22.7484 2.7017L8.43105 14.4602L0.863062 6.74369C0.576444 6.45135 0.427235 6.06781 0.448247 5.6774C0.469258 5.28698 0.65877 4.92167 0.975107 4.66179Z" fill="#00F704"/>
</svg>
