<svg width="17" height="17" viewBox="0 0 17 17" fill="none" xmlns="http://www.w3.org/2000/svg">
<path d="M13.7183 10.4155C13.2335 10.4187 12.7555 10.5293 12.3185 10.7392C11.8816 10.9492 11.4966 11.2534 11.1912 11.6298L7.00661 9.70167C7.20335 9.09922 7.20335 8.4498 7.00661 7.84734L11.1912 5.91917C11.6848 6.51482 12.373 6.91696 13.1342 7.05461C13.8955 7.19226 14.6809 7.05657 15.3519 6.67149C16.0228 6.28641 16.5362 5.67669 16.8014 4.94994C17.0665 4.2232 17.0665 3.42614 16.8012 2.69945C16.5359 1.97275 16.0224 1.36313 15.3514 0.97817C14.6803 0.593212 13.8949 0.457665 13.1336 0.595452C12.3724 0.733239 11.6843 1.1355 11.1908 1.73125C10.6973 2.32699 10.43 3.07792 10.4363 3.85151C10.4388 4.04698 10.458 4.24187 10.4937 4.43406L6.16149 6.42788C5.69961 5.97626 5.11473 5.67098 4.48013 5.55029C3.84552 5.42961 3.18941 5.49888 2.594 5.74943C1.99858 5.99998 1.49035 6.42067 1.13297 6.95879C0.775592 7.49691 0.584961 8.12853 0.584961 8.77451C0.584961 9.42049 0.775592 10.0521 1.13297 10.5902C1.49035 11.1283 1.99858 11.549 2.594 11.7996C3.18941 12.0501 3.84552 12.1194 4.48013 11.9987C5.11473 11.878 5.69961 11.5728 6.16149 11.1211L10.4937 13.115C10.458 13.3071 10.4388 13.502 10.4363 13.6975C10.4363 14.3466 10.6288 14.9812 10.9894 15.5209C11.35 16.0606 11.8626 16.4813 12.4623 16.7297C13.062 16.9781 13.7219 17.0431 14.3586 16.9165C14.9952 16.7898 15.58 16.4772 16.039 16.0182C16.498 15.5592 16.8106 14.9744 16.9372 14.3378C17.0639 13.7012 16.9989 13.0413 16.7505 12.4415C16.5021 11.8418 16.0814 11.3293 15.5417 10.9686C15.002 10.608 14.3674 10.4155 13.7183 10.4155ZM13.7183 2.21051C14.0429 2.21051 14.3601 2.30675 14.63 2.48706C14.8999 2.66738 15.1102 2.92367 15.2344 3.22352C15.3586 3.52338 15.3911 3.85333 15.3278 4.17165C15.2645 4.48997 15.1082 4.78237 14.8787 5.01187C14.6492 5.24137 14.3568 5.39766 14.0384 5.46098C13.7201 5.52429 13.3902 5.4918 13.0903 5.36759C12.7905 5.24339 12.5342 5.03306 12.3539 4.7632C12.1735 4.49334 12.0773 4.17607 12.0773 3.85151C12.0773 3.41629 12.2502 2.99889 12.5579 2.69114C12.8657 2.3834 13.2831 2.21051 13.7183 2.21051ZM3.87229 10.4155C3.54773 10.4155 3.23046 10.3193 2.9606 10.139C2.69074 9.95863 2.48041 9.70234 2.35621 9.40249C2.232 9.10264 2.19951 8.77269 2.26282 8.45436C2.32614 8.13604 2.48243 7.84364 2.71193 7.61415C2.94143 7.38465 3.23383 7.22836 3.55215 7.16504C3.87047 7.10172 4.20042 7.13422 4.50028 7.25842C4.80013 7.38262 5.05642 7.59296 5.23674 7.86282C5.41705 8.13268 5.5133 8.44995 5.5133 8.77451C5.5133 9.20973 5.3404 9.62712 5.03266 9.93487C4.72491 10.2426 4.30751 10.4155 3.87229 10.4155ZM13.7183 15.3385C13.3937 15.3385 13.0765 15.2423 12.8066 15.062C12.5367 14.8816 12.3264 14.6253 12.2022 14.3255C12.078 14.0256 12.0455 13.6957 12.1088 13.3774C12.1721 13.059 12.3284 12.7666 12.5579 12.5371C12.7874 12.3076 13.0798 12.1514 13.3982 12.088C13.7165 12.0247 14.0464 12.0572 14.3463 12.1814C14.6461 12.3056 14.9024 12.516 15.0827 12.7858C15.2631 13.0557 15.3593 13.373 15.3593 13.6975C15.3593 14.1327 15.1864 14.5501 14.8787 14.8579C14.5709 15.1656 14.1535 15.3385 13.7183 15.3385Z" fill="#A6A9B8"/>
</svg>
