<svg width="13" height="12" viewBox="0 0 13 12" fill="none" xmlns="http://www.w3.org/2000/svg">
<path d="M12.1021 6.7528C12.0155 6.68124 11.9105 6.63542 11.7992 6.62058C11.6879 6.60573 11.5746 6.62245 11.4723 6.66883C10.838 6.95907 10.1484 7.10844 9.45094 7.10668C8.16068 7.10513 6.92336 6.59352 6.00876 5.68342C5.09416 4.77331 4.57647 3.53853 4.56855 2.24829C4.57129 1.84392 4.62162 1.44129 4.7185 1.04869C4.73906 0.944046 4.73135 0.835815 4.69617 0.735144C4.66098 0.634474 4.59959 0.545006 4.51832 0.475956C4.43705 0.406907 4.33884 0.360774 4.2338 0.342311C4.12877 0.323847 4.02072 0.33372 3.92077 0.370912C2.98047 0.793717 2.16309 1.44861 1.54541 2.27407C0.927727 3.09953 0.530019 4.06846 0.389647 5.08984C0.249275 6.11122 0.370847 7.15152 0.742942 8.11301C1.11504 9.0745 1.72544 9.92562 2.51681 10.5864C3.30818 11.2472 4.25454 11.696 5.26699 11.8906C6.27944 12.0852 7.32474 12.0192 8.30469 11.6989C9.28464 11.3786 10.1671 10.8144 10.8691 10.0594C11.5711 9.30433 12.0697 8.38323 12.318 7.38259C12.3482 7.26803 12.3439 7.14707 12.3054 7.03499C12.267 6.9229 12.1962 6.82471 12.1021 6.7528ZM6.40395 10.7655C5.39734 10.7584 4.41752 10.4403 3.59867 9.85481C2.77982 9.26933 2.16195 8.44505 1.82967 7.49483C1.49739 6.54462 1.46694 5.51492 1.74249 4.54673C2.01804 3.57854 2.58612 2.71919 3.36895 2.08634V2.24829C3.37054 3.86085 4.01183 5.4069 5.15208 6.54715C6.29233 7.6874 7.83838 8.32869 9.45094 8.33028C9.87433 8.33183 10.2966 8.28759 10.7105 8.19832C10.2966 8.98137 9.67675 9.63655 8.91781 10.0932C8.15887 10.5498 7.28966 10.7906 6.40395 10.7895V10.7655Z" fill="white"/>
</svg>
