<svg width="13" height="12" viewBox="0 0 13 12" fill="none" xmlns="http://www.w3.org/2000/svg">
<path d="M12.1021 6.75305C12.0155 6.68148 11.9105 6.63567 11.7992 6.62082C11.6879 6.60597 11.5746 6.62269 11.4723 6.66907C10.838 6.95931 10.1484 7.10869 9.45094 7.10693C8.16068 7.10537 6.92336 6.59376 6.00876 5.68366C5.09416 4.77356 4.57647 3.53877 4.56855 2.24854C4.57129 1.84417 4.62162 1.44153 4.7185 1.04893C4.73906 0.94429 4.73135 0.836059 4.69617 0.735388C4.66098 0.634718 4.59959 0.54525 4.51832 0.476201C4.43705 0.407151 4.33884 0.361018 4.2338 0.342555C4.12877 0.324091 4.02072 0.333964 3.92077 0.371156C2.98047 0.793962 2.16309 1.44886 1.54541 2.27432C0.927727 3.09978 0.530019 4.06871 0.389647 5.09009C0.249275 6.11146 0.370847 7.15176 0.742942 8.11325C1.11504 9.07474 1.72544 9.92586 2.51681 10.5867C3.30818 11.2475 4.25454 11.6962 5.26699 11.8908C6.27944 12.0854 7.32474 12.0195 8.30469 11.6991C9.28464 11.3788 10.1671 10.8146 10.8691 10.0596C11.5711 9.30457 12.0697 8.38347 12.318 7.38284C12.3482 7.26827 12.3439 7.14732 12.3054 7.03523C12.267 6.92315 12.1962 6.82495 12.1021 6.75305ZM6.40395 10.7657C5.39734 10.7586 4.41752 10.4405 3.59867 9.85506C2.77982 9.26957 2.16195 8.44529 1.82967 7.49508C1.49739 6.54486 1.46694 5.51517 1.74249 4.54698C2.01804 3.57879 2.58612 2.71944 3.36895 2.08659V2.24854C3.37054 3.86109 4.01183 5.40715 5.15208 6.5474C6.29233 7.68765 7.83838 8.32894 9.45094 8.33052C9.87433 8.33208 10.2966 8.28783 10.7105 8.19857C10.2966 8.98162 9.67675 9.6368 8.91781 10.0934C8.15887 10.5501 7.28966 10.7908 6.40395 10.7897V10.7657Z" fill="white"/>
</svg>
