<svg width="17" height="17" viewBox="0 0 17 17" fill="none" xmlns="http://www.w3.org/2000/svg">
<path d="M13.2183 10.1543C12.7335 10.1575 12.2555 10.268 11.8185 10.478C11.3816 10.688 10.9966 10.9921 10.6912 11.3686L6.50661 9.44044C6.70335 8.83799 6.70335 8.18857 6.50661 7.58611L10.6912 5.65794C11.1848 6.25359 11.873 6.65573 12.6342 6.79338C13.3955 6.93103 14.1809 6.79534 14.8519 6.41026C15.5228 6.02518 16.0362 5.41546 16.3014 4.68871C16.5665 3.96197 16.5665 3.16491 16.3012 2.43822C16.0359 1.71152 15.5224 1.1019 14.8514 0.716939C14.1803 0.331981 13.3949 0.196435 12.6336 0.334221C11.8724 0.472008 11.1843 0.874271 10.6908 1.47002C10.1973 2.06576 9.93005 2.81669 9.9363 3.59028C9.93877 3.78574 9.95798 3.98064 9.99373 4.17283L5.66149 6.16665C5.19961 5.71503 4.61473 5.40975 3.98013 5.28906C3.34552 5.16838 2.68941 5.23765 2.094 5.4882C1.49858 5.73875 0.990351 6.15944 0.632972 6.69756C0.275592 7.23568 0.0849609 7.8673 0.0849609 8.51328C0.0849609 9.15926 0.275592 9.79088 0.632972 10.329C0.990351 10.8671 1.49858 11.2878 2.094 11.5384C2.68941 11.7889 3.34552 11.8582 3.98013 11.7375C4.61473 11.6168 5.19961 11.3115 5.66149 10.8599L9.99373 12.8537C9.95798 13.0459 9.93877 13.2408 9.9363 13.4363C9.9363 14.0854 10.1288 14.7199 10.4894 15.2597C10.85 15.7994 11.3626 16.22 11.9623 16.4685C12.562 16.7169 13.2219 16.7819 13.8586 16.6552C14.4952 16.5286 15.08 16.216 15.539 15.757C15.998 15.298 16.3106 14.7132 16.4372 14.0766C16.5639 13.4399 16.4989 12.78 16.2505 12.1803C16.0021 11.5806 15.5814 11.068 15.0417 10.7074C14.502 10.3468 13.8674 10.1543 13.2183 10.1543ZM13.2183 1.94927C13.5429 1.94927 13.8601 2.04552 14.13 2.22583C14.3999 2.40615 14.6102 2.66244 14.7344 2.96229C14.8586 3.26215 14.8911 3.5921 14.8278 3.91042C14.7645 4.22874 14.6082 4.52114 14.3787 4.75064C14.1492 4.98014 13.8568 5.13643 13.5384 5.19974C13.2201 5.26306 12.8902 5.23057 12.5903 5.10636C12.2905 4.98216 12.0342 4.77183 11.8539 4.50197C11.6735 4.23211 11.5773 3.91483 11.5773 3.59028C11.5773 3.15506 11.7502 2.73766 12.0579 2.42991C12.3657 2.12217 12.7831 1.94927 13.2183 1.94927ZM3.37229 10.1543C3.04773 10.1543 2.73046 10.058 2.4606 9.87772C2.19074 9.6974 1.98041 9.44111 1.85621 9.14126C1.732 8.84141 1.69951 8.51146 1.76282 8.19313C1.82614 7.87481 1.98243 7.58241 2.21193 7.35292C2.44143 7.12342 2.73383 6.96713 3.05215 6.90381C3.37047 6.84049 3.70042 6.87299 4.00028 6.99719C4.30013 7.12139 4.55642 7.33173 4.73674 7.60159C4.91705 7.87145 5.0133 8.18872 5.0133 8.51328C5.0133 8.9485 4.8404 9.36589 4.53266 9.67364C4.22491 9.98139 3.80751 10.1543 3.37229 10.1543ZM13.2183 15.0773C12.8937 15.0773 12.5765 14.981 12.3066 14.8007C12.0367 14.6204 11.8264 14.3641 11.7022 14.0643C11.578 13.7644 11.5455 13.4345 11.6088 13.1161C11.6721 12.7978 11.8284 12.5054 12.0579 12.2759C12.2874 12.0464 12.5798 11.8901 12.8982 11.8268C13.2165 11.7635 13.5464 11.796 13.8463 11.9202C14.1461 12.0444 14.4024 12.2547 14.5827 12.5246C14.7631 12.7944 14.8593 13.1117 14.8593 13.4363C14.8593 13.8715 14.6864 14.2889 14.3787 14.5966C14.0709 14.9044 13.6535 15.0773 13.2183 15.0773Z" fill="white"/>
</svg>
