<svg width="13" height="12" viewBox="0 0 13 12" fill="none" xmlns="http://www.w3.org/2000/svg">
<path d="M12.1023 6.75256C12.0157 6.68099 11.9108 6.63518 11.7994 6.62033C11.6881 6.60549 11.5748 6.6222 11.4725 6.66858C10.8383 6.95882 10.1487 7.1082 9.45118 7.10644C8.16092 7.10488 6.9236 6.59328 6.009 5.68317C5.09441 4.77307 4.57671 3.53829 4.5688 2.24805C4.57153 1.84368 4.62186 1.44104 4.71875 1.04844C4.73931 0.943802 4.7316 0.83557 4.69641 0.7349C4.66122 0.63423 4.59983 0.544762 4.51856 0.475712C4.43729 0.406663 4.33908 0.36053 4.23405 0.342066C4.12902 0.323603 4.02096 0.333475 3.92101 0.370668C2.98072 0.793473 2.16334 1.44837 1.54565 2.27383C0.927971 3.09929 0.530263 4.06822 0.389891 5.0896C0.249519 6.11098 0.371091 7.15128 0.743187 8.11277C1.11528 9.07425 1.72569 9.92537 2.51706 10.5862C3.30843 11.247 4.25479 11.6957 5.26723 11.8903C6.27968 12.0849 7.32498 12.019 8.30493 11.6987C9.28488 11.3783 10.1673 10.8141 10.8694 10.0591C11.5714 9.30409 12.07 8.38299 12.3182 7.38235C12.3485 7.26778 12.3441 7.14683 12.3057 7.03474C12.2672 6.92266 12.1965 6.82447 12.1023 6.75256ZM6.40419 10.7652C5.39758 10.7581 4.41777 10.4401 3.59891 9.85457C2.78006 9.26908 2.16219 8.4448 1.82991 7.49459C1.49764 6.54437 1.46719 5.51468 1.74274 4.54649C2.01829 3.5783 2.58637 2.71895 3.3692 2.0861V2.24805C3.37078 3.8606 4.01207 5.40666 5.15232 6.54691C6.29257 7.68716 7.83863 8.32845 9.45118 8.33004C9.87457 8.33159 10.2969 8.28735 10.7108 8.19808C10.2968 8.98113 9.67699 9.63631 8.91805 10.0929C8.15912 10.5496 7.28991 10.7903 6.40419 10.7892V10.7652Z" fill="white"/>
</svg>
