<svg width="17" height="17" viewBox="0 0 17 17" fill="none" xmlns="http://www.w3.org/2000/svg">
<path d="M13.3765 10.4155C12.8917 10.4187 12.4137 10.5293 11.9767 10.7392C11.5398 10.9492 11.1548 11.2534 10.8494 11.6298L6.66481 9.70167C6.86156 9.09922 6.86156 8.4498 6.66481 7.84734L10.8494 5.91917C11.343 6.51482 12.0312 6.91696 12.7924 7.05461C13.5537 7.19226 14.3391 7.05657 15.0101 6.67149C15.681 6.28641 16.1944 5.67669 16.4596 4.94994C16.7247 4.2232 16.7247 3.42614 16.4594 2.69945C16.1941 1.97275 15.6806 1.36313 15.0096 0.97817C14.3385 0.593212 13.5531 0.457665 12.7918 0.595452C12.0306 0.733239 11.3425 1.1355 10.849 1.73125C10.3555 2.32699 10.0882 3.07792 10.0945 3.85151C10.097 4.04698 10.1162 4.24187 10.1519 4.43406L5.81969 6.42788C5.35782 5.97626 4.77294 5.67098 4.13833 5.55029C3.50372 5.42961 2.84761 5.49888 2.2522 5.74943C1.65679 5.99998 1.14855 6.42067 0.791175 6.95879C0.433796 7.49691 0.243164 8.12853 0.243164 8.77451C0.243164 9.42049 0.433796 10.0521 0.791175 10.5902C1.14855 11.1283 1.65679 11.549 2.2522 11.7996C2.84761 12.0501 3.50372 12.1194 4.13833 11.9987C4.77294 11.878 5.35782 11.5728 5.81969 11.1211L10.1519 13.115C10.1162 13.3071 10.097 13.502 10.0945 13.6975C10.0945 14.3466 10.287 14.9812 10.6476 15.5209C11.0082 16.0606 11.5208 16.4813 12.1205 16.7297C12.7202 16.9781 13.3801 17.0431 14.0168 16.9165C14.6534 16.7898 15.2382 16.4772 15.6972 16.0182C16.1562 15.5592 16.4688 14.9744 16.5954 14.3378C16.7221 13.7012 16.6571 13.0413 16.4087 12.4415C16.1603 11.8418 15.7396 11.3293 15.1999 10.9686C14.6602 10.608 14.0256 10.4155 13.3765 10.4155ZM13.3765 2.21051C13.7011 2.21051 14.0183 2.30675 14.2882 2.48706C14.5581 2.66738 14.7684 2.92367 14.8926 3.22352C15.0168 3.52338 15.0493 3.85333 14.986 4.17165C14.9227 4.48997 14.7664 4.78237 14.5369 5.01187C14.3074 5.24137 14.015 5.39766 13.6966 5.46098C13.3783 5.52429 13.0484 5.4918 12.7485 5.36759C12.4487 5.24339 12.1924 5.03306 12.0121 4.7632C11.8317 4.49334 11.7355 4.17607 11.7355 3.85151C11.7355 3.41629 11.9084 2.99889 12.2161 2.69114C12.5239 2.3834 12.9413 2.21051 13.3765 2.21051ZM3.5305 10.4155C3.20594 10.4155 2.88867 10.3193 2.61881 10.139C2.34895 9.95863 2.13861 9.70234 2.01441 9.40249C1.89021 9.10264 1.85771 8.77269 1.92103 8.45436C1.98435 8.13604 2.14064 7.84364 2.37013 7.61415C2.59963 7.38465 2.89203 7.22836 3.21035 7.16504C3.52868 7.10172 3.85863 7.13422 4.15848 7.25842C4.45833 7.38262 4.71462 7.59296 4.89494 7.86282C5.07525 8.13268 5.1715 8.44995 5.1715 8.77451C5.1715 9.20973 4.99861 9.62712 4.69086 9.93487C4.38311 10.2426 3.96572 10.4155 3.5305 10.4155ZM13.3765 15.3385C13.0519 15.3385 12.7347 15.2423 12.4648 15.062C12.195 14.8816 11.9846 14.6253 11.8604 14.3255C11.7362 14.0256 11.7037 13.6957 11.767 13.3774C11.8304 13.059 11.9866 12.7666 12.2161 12.5371C12.4456 12.3076 12.738 12.1514 13.0564 12.088C13.3747 12.0247 13.7046 12.0572 14.0045 12.1814C14.3043 12.3056 14.5606 12.516 14.7409 12.7858C14.9213 13.0557 15.0175 13.373 15.0175 13.6975C15.0175 14.1327 14.8446 14.5501 14.5369 14.8579C14.2291 15.1656 13.8117 15.3385 13.3765 15.3385Z" fill="#A6A9B8"/>
</svg>
