<svg width="13" height="12" viewBox="0 0 13 12" fill="none" xmlns="http://www.w3.org/2000/svg">
<path d="M12.1021 6.75256C12.0155 6.68099 11.9105 6.63518 11.7992 6.62033C11.6879 6.60549 11.5746 6.6222 11.4723 6.66858C10.838 6.95882 10.1484 7.1082 9.45094 7.10644C8.16068 7.10488 6.92336 6.59328 6.00876 5.68317C5.09416 4.77307 4.57647 3.53829 4.56855 2.24805C4.57129 1.84368 4.62162 1.44104 4.7185 1.04844C4.73906 0.943802 4.73135 0.83557 4.69617 0.7349C4.66098 0.63423 4.59959 0.544762 4.51832 0.475712C4.43705 0.406663 4.33884 0.36053 4.2338 0.342066C4.12877 0.323603 4.02072 0.333475 3.92077 0.370668C2.98047 0.793473 2.16309 1.44837 1.54541 2.27383C0.927727 3.09929 0.530019 4.06822 0.389647 5.0896C0.249275 6.11098 0.370847 7.15128 0.742942 8.11277C1.11504 9.07425 1.72544 9.92537 2.51681 10.5862C3.30818 11.247 4.25454 11.6957 5.26699 11.8903C6.27944 12.0849 7.32474 12.019 8.30469 11.6987C9.28464 11.3783 10.1671 10.8141 10.8691 10.0591C11.5711 9.30409 12.0697 8.38299 12.318 7.38235C12.3482 7.26778 12.3439 7.14683 12.3054 7.03474C12.267 6.92266 12.1962 6.82447 12.1021 6.75256ZM6.40395 10.7652C5.39734 10.7581 4.41752 10.4401 3.59867 9.85457C2.77982 9.26908 2.16195 8.4448 1.82967 7.49459C1.49739 6.54437 1.46694 5.51468 1.74249 4.54649C2.01804 3.5783 2.58612 2.71895 3.36895 2.0861V2.24805C3.37054 3.8606 4.01183 5.40666 5.15208 6.54691C6.29233 7.68716 7.83838 8.32845 9.45094 8.33004C9.87433 8.33159 10.2966 8.28735 10.7105 8.19808C10.2966 8.98113 9.67675 9.63631 8.91781 10.0929C8.15887 10.5496 7.28966 10.7903 6.40395 10.7892V10.7652Z" fill="white"/>
</svg>
