<svg width="11" height="12" viewBox="0 0 11 12" fill="none" xmlns="http://www.w3.org/2000/svg">
<path d="M9.35687 12C8.90129 12 8.51469 11.8456 8.19706 11.5367C7.8799 11.2273 7.72131 10.8518 7.72131 10.41C7.72131 10.3433 7.75156 10.1751 7.81206 9.90533L2.86412 7.05667C2.71562 7.22289 2.5339 7.35333 2.31894 7.448C2.10398 7.54267 1.87321 7.59 1.62662 7.59C1.17471 7.59 0.790625 7.434 0.474375 7.122C0.158125 6.81 0 6.436 0 6C0 5.564 0.158125 5.19 0.474375 4.878C0.790625 4.566 1.17471 4.41 1.62662 4.41C1.87275 4.41 2.10352 4.45733 2.31894 4.552C2.53435 4.64667 2.71608 4.77733 2.86412 4.944L7.81275 2.10733C7.78067 2.02111 7.75752 1.93556 7.74331 1.85067C7.72864 1.76533 7.72131 1.67822 7.72131 1.58933C7.72131 1.148 7.88104 0.772667 8.2005 0.463333C8.51996 0.154444 8.90771 0 9.36375 0C9.81979 0 10.2066 0.154889 10.5242 0.464667C10.8419 0.774444 11.0005 1.15044 11 1.59267C10.9995 2.03489 10.8403 2.41 10.5222 2.718C10.2041 3.026 9.81681 3.17978 9.36031 3.17933C9.11189 3.17933 8.88273 3.13 8.67281 3.03133C8.4629 2.93267 8.28415 2.8 8.13656 2.63333L3.18725 5.482C3.21933 5.56822 3.24248 5.654 3.25669 5.73933C3.27135 5.82422 3.27869 5.91111 3.27869 6C3.27869 6.08889 3.27135 6.17578 3.25669 6.26067C3.24202 6.34555 3.2191 6.43133 3.18794 6.518L8.13656 9.36666C8.2846 9.2 8.46335 9.06733 8.67281 8.96867C8.88273 8.87 9.11189 8.82067 9.36031 8.82067C9.8159 8.82067 10.2032 8.97533 10.5222 9.28467C10.8407 9.59489 11 9.97111 11 10.4133C11 10.8556 10.8403 11.2307 10.5208 11.5387C10.2014 11.8467 9.81292 12.0004 9.35687 12ZM9.36031 11.3333C9.63027 11.3333 9.85646 11.2449 10.0389 11.068C10.2213 10.8911 10.3125 10.672 10.3125 10.4107C10.3125 10.1493 10.2213 9.93 10.0389 9.75266C9.85646 9.57533 9.6305 9.48689 9.361 9.48733C9.0915 9.48778 8.86531 9.57622 8.68244 9.75266C8.49956 9.92911 8.40835 10.1482 8.40881 10.41C8.40927 10.6718 8.50048 10.8911 8.68244 11.068C8.8644 11.2449 9.0899 11.3333 9.36031 11.3333ZM1.62662 6.92267C1.89979 6.92267 2.12896 6.83422 2.31412 6.65733C2.49883 6.48044 2.59119 6.26133 2.59119 6C2.59119 5.73867 2.49883 5.51955 2.31412 5.34267C2.12942 5.16578 1.90025 5.07733 1.62662 5.07733C1.36033 5.07733 1.13735 5.16578 0.957687 5.34267C0.778021 5.51955 0.687958 5.73867 0.6875 6C0.687042 6.26133 0.777104 6.48067 0.957687 6.658C1.13827 6.83533 1.36125 6.92355 1.62662 6.92267ZM9.361 2.51267C9.6305 2.51267 9.85646 2.42422 10.0389 2.24733C10.2213 2.07044 10.3125 1.85111 10.3125 1.58933C10.3125 1.32756 10.2213 1.10844 10.0389 0.932C9.85646 0.755555 9.6305 0.667111 9.361 0.666667C9.0915 0.666222 8.86531 0.754666 8.68244 0.932C8.49956 1.10933 8.40835 1.32867 8.40881 1.59C8.40927 1.85133 8.50048 2.07044 8.68244 2.24733C8.8644 2.42422 9.09058 2.51267 9.361 2.51267Z" fill="white"/>
</svg>
