<svg width="13" height="12" viewBox="0 0 13 12" fill="none" xmlns="http://www.w3.org/2000/svg">
<path d="M12.1025 6.75305C12.016 6.68148 11.911 6.63567 11.7997 6.62082C11.6883 6.60597 11.5751 6.62269 11.4728 6.66907C10.8385 6.95931 10.1489 7.10869 9.45143 7.10693C8.16117 7.10537 6.92385 6.59376 6.00925 5.68366C5.09465 4.77356 4.57696 3.53877 4.56904 2.24854C4.57178 1.84417 4.62211 1.44153 4.71899 1.04893C4.73955 0.94429 4.73184 0.836059 4.69665 0.735388C4.66147 0.634718 4.60007 0.54525 4.5188 0.476201C4.43753 0.407151 4.33932 0.361018 4.23429 0.342555C4.12926 0.324091 4.0212 0.333964 3.92126 0.371156C2.98096 0.793962 2.16358 1.44886 1.5459 2.27432C0.928216 3.09978 0.530507 4.06871 0.390135 5.09009C0.249763 6.11146 0.371335 7.15176 0.743431 8.11325C1.11553 9.07474 1.72593 9.92586 2.5173 10.5867C3.30867 11.2475 4.25503 11.6962 5.26748 11.8908C6.27992 12.0854 7.32522 12.0195 8.30518 11.6991C9.28513 11.3788 10.1676 10.8146 10.8696 10.0596C11.5716 9.30457 12.0702 8.38347 12.3185 7.38284C12.3487 7.26827 12.3443 7.14732 12.3059 7.03523C12.2675 6.92315 12.1967 6.82495 12.1025 6.75305ZM6.40444 10.7657C5.39782 10.7586 4.41801 10.4405 3.59916 9.85506C2.7803 9.26957 2.16244 8.44529 1.83016 7.49508C1.49788 6.54486 1.46743 5.51517 1.74298 4.54698C2.01853 3.57879 2.58661 2.71944 3.36944 2.08659V2.24854C3.37103 3.86109 4.01232 5.40715 5.15257 6.5474C6.29282 7.68765 7.83887 8.32894 9.45143 8.33052C9.87482 8.33208 10.2971 8.28783 10.711 8.19857C10.2971 8.98162 9.67723 9.6368 8.9183 10.0934C8.15936 10.5501 7.29015 10.7908 6.40444 10.7897V10.7657Z" fill="white"/>
</svg>
