<svg width="17" height="17" viewBox="0 0 17 17" fill="none" xmlns="http://www.w3.org/2000/svg">
<path d="M8.77075 11.708V13.1663" stroke="white" stroke-width="0.833333" stroke-linecap="round" stroke-linejoin="round"/>
<path d="M5.29907 15.5277H12.2435V14.8332C12.2435 14.0693 11.6185 13.4443 10.8546 13.4443H6.68796C5.92407 13.4443 5.29907 14.0693 5.29907 14.8332V15.5277V15.5277Z" stroke="white" stroke-width="0.833333" stroke-miterlimit="10"/>
<path d="M4.604 15.5283H12.9373" stroke="white" stroke-width="0.833333" stroke-linecap="round" stroke-linejoin="round"/>
<path d="M8.66604 11.3609C5.97854 11.3609 3.80493 9.18728 3.80493 6.49978V4.41645C3.80493 2.88173 5.04799 1.63867 6.58271 1.63867H10.7494C12.2841 1.63867 13.5272 2.88173 13.5272 4.41645V6.49978C13.5272 9.18728 11.3535 11.3609 8.66604 11.3609Z" stroke="white" stroke-width="0.833333" stroke-linecap="round" stroke-linejoin="round"/>
<path d="M4.13121 8.33995C3.61038 8.17328 3.15205 7.86773 2.79093 7.50662C2.16593 6.81217 1.74927 5.97884 1.74927 5.00662C1.74927 4.0344 2.51316 3.27051 3.48538 3.27051H3.93677C3.79788 3.58995 3.72843 3.94412 3.72843 4.31217V6.39551C3.72843 7.08995 3.87427 7.74273 4.13121 8.33995Z" stroke="white" stroke-width="0.833333" stroke-linecap="round" stroke-linejoin="round"/>
<path d="M13.2012 8.33995C13.722 8.17328 14.1803 7.86773 14.5414 7.50662C15.1664 6.81217 15.5831 5.97884 15.5831 5.00662C15.5831 4.0344 14.8192 3.27051 13.847 3.27051H13.3956C13.5345 3.58995 13.6039 3.94412 13.6039 4.31217V6.39551C13.6039 7.08995 13.4581 7.74273 13.2012 8.33995Z" stroke="white" stroke-width="0.833333" stroke-linecap="round" stroke-linejoin="round"/>
</svg>
