<svg width="17" height="17" viewBox="0 0 17 17" fill="none" xmlns="http://www.w3.org/2000/svg">
<path d="M8.77051 11.7083V13.1666" stroke="white" stroke-width="0.833333" stroke-linecap="round" stroke-linejoin="round"/>
<path d="M5.29883 15.5279H12.2433V14.8335C12.2433 14.0696 11.6183 13.4446 10.8544 13.4446H6.68772C5.92383 13.4446 5.29883 14.0696 5.29883 14.8335V15.5279V15.5279Z" stroke="white" stroke-width="0.833333" stroke-miterlimit="10"/>
<path d="M4.60352 15.5278H12.9368" stroke="white" stroke-width="0.833333" stroke-linecap="round" stroke-linejoin="round"/>
<path d="M8.6658 11.3609C5.9783 11.3609 3.80469 9.18728 3.80469 6.49978V4.41645C3.80469 2.88173 5.04774 1.63867 6.58247 1.63867H10.7491C12.2839 1.63867 13.5269 2.88173 13.5269 4.41645V6.49978C13.5269 9.18728 11.3533 11.3609 8.6658 11.3609Z" stroke="white" stroke-width="0.833333" stroke-linecap="round" stroke-linejoin="round"/>
<path d="M4.13097 8.3402C3.61013 8.17353 3.1518 7.86797 2.79069 7.50686C2.16569 6.81242 1.74902 5.97908 1.74902 5.00686C1.74902 4.03464 2.51291 3.27075 3.48513 3.27075H3.93652C3.79763 3.5902 3.72819 3.94436 3.72819 4.31242V6.39575C3.72819 7.0902 3.87402 7.74297 4.13097 8.3402Z" stroke="white" stroke-width="0.833333" stroke-linecap="round" stroke-linejoin="round"/>
<path d="M13.2012 8.3402C13.722 8.17353 14.1803 7.86797 14.5414 7.50686C15.1664 6.81242 15.5831 5.97908 15.5831 5.00686C15.5831 4.03464 14.8192 3.27075 13.847 3.27075H13.3956C13.5345 3.5902 13.6039 3.94436 13.6039 4.31242V6.39575C13.6039 7.0902 13.4581 7.74297 13.2012 8.3402Z" stroke="white" stroke-width="0.833333" stroke-linecap="round" stroke-linejoin="round"/>
</svg>
