<svg width="17" height="18" viewBox="0 0 17 18" fill="none" xmlns="http://www.w3.org/2000/svg">
<path d="M6.6454 9.48633L4.52734 11.6044" stroke="white" stroke-width="0.833333" stroke-miterlimit="10" stroke-linecap="round" stroke-linejoin="round"/>
<path d="M4.54883 9.50684L6.66688 11.6249" stroke="white" stroke-width="0.833333" stroke-miterlimit="10" stroke-linecap="round" stroke-linejoin="round"/>
<path d="M9.39551 10.5557H9.40245" stroke="white" stroke-width="0.833333" stroke-miterlimit="10" stroke-linecap="round" stroke-linejoin="round"/>
<path d="M12.1318 10.5557H12.1388" stroke="white" stroke-width="0.833333" stroke-miterlimit="10" stroke-linecap="round" stroke-linejoin="round"/>
<path d="M10.7637 11.9304V11.9165" stroke="white" stroke-width="0.833333" stroke-miterlimit="10" stroke-linecap="round" stroke-linejoin="round"/>
<path d="M10.7637 9.19455V9.18066" stroke="white" stroke-width="0.833333" stroke-miterlimit="10" stroke-linecap="round" stroke-linejoin="round"/>
<path d="M6.24978 16.1111H10.4165C13.8887 16.1111 15.2776 14.7222 15.2776 11.25V9.86111C15.2776 6.38889 13.8887 5 10.4165 5H6.24978C2.77756 5 1.38867 6.38889 1.38867 9.86111V11.25C1.38867 14.7222 2.77756 16.1111 6.24978 16.1111Z" stroke="white" stroke-width="0.833333" stroke-linecap="round" stroke-linejoin="round"/>
<path d="M9.03472 2.22217L9.02778 2.92356C9.02083 3.3055 8.71528 3.61106 8.33333 3.61106H8.3125C7.93056 3.61106 7.625 3.92356 7.625 4.3055C7.625 4.68745 7.9375 4.99995 8.31944 4.99995H9.01389" stroke="white" stroke-width="0.833333" stroke-linecap="round" stroke-linejoin="round"/>
</svg>
