<svg width="17" height="18" viewBox="0 0 17 18" fill="none" xmlns="http://www.w3.org/2000/svg">
<path d="M15.0422 7.74994L14.3617 10.6527C13.7783 13.1597 12.6256 14.1735 10.4589 13.9652C10.1117 13.9374 9.73667 13.8749 9.33389 13.7777L8.16723 13.4999C5.27139 12.8124 4.37556 11.3819 5.05611 8.4791L5.73667 5.56938C5.87556 4.9791 6.04223 4.46522 6.25056 4.0416C7.06306 2.36105 8.445 1.90966 10.7644 2.45827L11.9242 2.7291C14.8339 3.40966 15.7228 4.84716 15.0422 7.74994Z" stroke="white" stroke-width="0.833333" stroke-linecap="round" stroke-linejoin="round"/>
<path d="M8.13723 7.90975C8.09037 7.16012 8.56908 6.37147 9.34904 6.31795C9.76344 6.29378 10.2092 6.51389 10.3782 6.95056C10.7243 6.62978 11.2379 6.66653 11.5843 6.88303C12.2518 7.3025 12.2915 8.2222 11.9008 8.86119C11.28 9.87181 9.93015 10.1394 9.59352 10.0543C9.26532 9.96416 8.21493 9.10411 8.13723 7.90975Z" stroke="white" stroke-width="0.833333" stroke-linecap="round" stroke-linejoin="round"/>
<path d="M10.4581 13.9654C10.0275 14.257 9.48586 14.5001 8.82614 14.7154L7.72892 15.0765C4.97197 15.9654 3.52058 15.2223 2.62475 12.4654L1.73586 9.7223C0.846971 6.96536 1.58308 5.50703 4.34003 4.61814L5.43725 4.25703C5.72197 4.16675 5.9928 4.09036 6.24975 4.04175C6.04141 4.46536 5.87475 4.97925 5.73586 5.56953L5.0553 8.47925C4.37475 11.382 5.27058 12.8126 8.16642 13.5001L9.33308 13.7779C9.73586 13.8751 10.1109 13.9376 10.4581 13.9654Z" stroke="white" stroke-width="0.833333" stroke-linecap="round" stroke-linejoin="round"/>
</svg>
