<svg width="17" height="17" viewBox="0 0 17 17" fill="none" xmlns="http://www.w3.org/2000/svg">
<path d="M15.3752 7.50018L14.6947 10.403C14.1113 12.9099 12.9586 13.9238 10.7919 13.7155C10.4447 13.6877 10.0697 13.6252 9.6669 13.528L8.50023 13.2502C5.6044 12.5627 4.70857 11.1321 5.38912 8.22935L6.06968 5.31963C6.20857 4.72935 6.37523 4.21546 6.58357 3.79185C7.39607 2.11129 8.77801 1.6599 11.0975 2.20852L12.2572 2.47935C15.1669 3.1599 16.0558 4.5974 15.3752 7.50018Z" stroke="white" stroke-width="0.833333" stroke-linecap="round" stroke-linejoin="round"/>
<path d="M8.47024 7.65999C8.42338 6.91036 8.90209 6.12172 9.68205 6.0682C10.0964 6.04403 10.5422 6.26413 10.7112 6.70081C11.0573 6.38002 11.5709 6.41678 11.9173 6.63328C12.5848 7.05274 12.6245 7.97244 12.2338 8.61144C11.613 9.62205 10.2632 9.88964 9.92653 9.80454C9.59833 9.71441 8.54793 8.85435 8.47024 7.65999Z" stroke="white" stroke-width="0.833333" stroke-linecap="round" stroke-linejoin="round"/>
<path d="M10.7921 13.7156C10.3615 14.0073 9.81984 14.2503 9.16012 14.4656L8.0629 14.8267C5.30596 15.7156 3.85457 14.9725 2.95873 12.2156L2.06984 9.47255C1.18096 6.7156 1.91707 5.25727 4.67401 4.36838L5.77123 4.00727C6.05595 3.91699 6.32679 3.8406 6.58373 3.79199C6.3754 4.2156 6.20873 4.72949 6.06984 5.31977L5.38929 8.22949C4.70873 11.1323 5.60457 12.5628 8.5004 13.2503L9.66707 13.5281C10.0698 13.6253 10.4448 13.6878 10.7921 13.7156Z" stroke="white" stroke-width="0.833333" stroke-linecap="round" stroke-linejoin="round"/>
</svg>
