<svg width="17" height="18" viewBox="0 0 17 18" fill="none" xmlns="http://www.w3.org/2000/svg">
<path d="M6.6454 9.15283L4.52734 11.2709" stroke="white" stroke-width="0.833333" stroke-miterlimit="10" stroke-linecap="round" stroke-linejoin="round"/>
<path d="M4.54883 9.17334L6.66688 11.2914" stroke="white" stroke-width="0.833333" stroke-miterlimit="10" stroke-linecap="round" stroke-linejoin="round"/>
<path d="M9.39551 10.2222H9.40245" stroke="white" stroke-width="0.833333" stroke-miterlimit="10" stroke-linecap="round" stroke-linejoin="round"/>
<path d="M12.1318 10.2222H12.1388" stroke="white" stroke-width="0.833333" stroke-miterlimit="10" stroke-linecap="round" stroke-linejoin="round"/>
<path d="M10.7637 11.5969V11.583" stroke="white" stroke-width="0.833333" stroke-miterlimit="10" stroke-linecap="round" stroke-linejoin="round"/>
<path d="M10.7637 8.86106V8.84717" stroke="white" stroke-width="0.833333" stroke-miterlimit="10" stroke-linecap="round" stroke-linejoin="round"/>
<path d="M6.24978 15.7776H10.4165C13.8887 15.7776 15.2776 14.3887 15.2776 10.9165V9.52762C15.2776 6.05539 13.8887 4.6665 10.4165 4.6665H6.24978C2.77756 4.6665 1.38867 6.05539 1.38867 9.52762V10.9165C1.38867 14.3887 2.77756 15.7776 6.24978 15.7776Z" stroke="white" stroke-width="0.833333" stroke-linecap="round" stroke-linejoin="round"/>
<path d="M9.03472 1.88867L9.02778 2.59006C9.02083 2.97201 8.71528 3.27756 8.33333 3.27756H8.3125C7.93056 3.27756 7.625 3.59006 7.625 3.97201C7.625 4.35395 7.9375 4.66645 8.31944 4.66645H9.01389" stroke="white" stroke-width="0.833333" stroke-linecap="round" stroke-linejoin="round"/>
</svg>
