<svg width="17" height="17" viewBox="0 0 17 17" fill="none" xmlns="http://www.w3.org/2000/svg">
<path d="M15.3752 7.50018L14.6947 10.403C14.1113 12.9099 12.9586 13.9238 10.7919 13.7155C10.4447 13.6877 10.0697 13.6252 9.6669 13.528L8.50023 13.2502C5.6044 12.5627 4.70857 11.1321 5.38912 8.22935L6.06968 5.31963C6.20857 4.72935 6.37523 4.21546 6.58357 3.79185C7.39607 2.11129 8.77801 1.6599 11.0975 2.20852L12.2572 2.47935C15.1669 3.1599 16.0558 4.5974 15.3752 7.50018Z" stroke="white" stroke-width="0.833333" stroke-linecap="round" stroke-linejoin="round"/>
<path d="M8.47024 7.65999C8.42338 6.91036 8.90209 6.12172 9.68205 6.0682C10.0964 6.04403 10.5422 6.26413 10.7112 6.70081C11.0573 6.38002 11.5709 6.41678 11.9173 6.63328C12.5848 7.05274 12.6245 7.97244 12.2338 8.61144C11.613 9.62205 10.2632 9.88964 9.92653 9.80454C9.59833 9.71441 8.54793 8.85435 8.47024 7.65999Z" stroke="white" stroke-width="0.833333" stroke-linecap="round" stroke-linejoin="round"/>
<path d="M10.7916 13.7151C10.361 14.0068 9.81936 14.2498 9.15963 14.4651L8.06241 14.8262C5.30547 15.7151 3.85408 14.9721 2.95824 12.2151L2.06936 9.47206C1.18047 6.71512 1.91658 5.25678 4.67352 4.36789L5.77074 4.00678C6.05547 3.9165 6.3263 3.84012 6.58324 3.7915C6.37491 4.21512 6.20824 4.729 6.06936 5.31928L5.3888 8.229C4.70824 11.1318 5.60408 12.5623 8.49991 13.2498L9.66658 13.5276C10.0694 13.6248 10.4444 13.6873 10.7916 13.7151Z" stroke="white" stroke-width="0.833333" stroke-linecap="round" stroke-linejoin="round"/>
</svg>
