<svg width="17" height="18" viewBox="0 0 17 18" fill="none" xmlns="http://www.w3.org/2000/svg">
<path d="M6.97841 9.23633L4.86035 11.3544" stroke="white" stroke-width="0.833333" stroke-miterlimit="10" stroke-linecap="round" stroke-linejoin="round"/>
<path d="M4.88232 9.25684L7.00038 11.3749" stroke="white" stroke-width="0.833333" stroke-miterlimit="10" stroke-linecap="round" stroke-linejoin="round"/>
<path d="M9.72852 10.3057H9.73546" stroke="white" stroke-width="0.833333" stroke-miterlimit="10" stroke-linecap="round" stroke-linejoin="round"/>
<path d="M12.4653 10.3057H12.4723" stroke="white" stroke-width="0.833333" stroke-miterlimit="10" stroke-linecap="round" stroke-linejoin="round"/>
<path d="M11.0972 11.6804V11.6665" stroke="white" stroke-width="0.833333" stroke-miterlimit="10" stroke-linecap="round" stroke-linejoin="round"/>
<path d="M11.0972 8.94455V8.93066" stroke="white" stroke-width="0.833333" stroke-miterlimit="10" stroke-linecap="round" stroke-linejoin="round"/>
<path d="M6.58328 15.8611H10.7499C14.2222 15.8611 15.6111 14.4722 15.6111 11V9.61111C15.6111 6.13889 14.2222 4.75 10.7499 4.75H6.58328C3.11106 4.75 1.72217 6.13889 1.72217 9.61111V11C1.72217 14.4722 3.11106 15.8611 6.58328 15.8611Z" stroke="white" stroke-width="0.833333" stroke-linecap="round" stroke-linejoin="round"/>
<path d="M9.36822 1.97217L9.36127 2.67356C9.35433 3.0555 9.04877 3.36106 8.66683 3.36106H8.646C8.26405 3.36106 7.9585 3.67356 7.9585 4.0555C7.9585 4.43745 8.271 4.74995 8.65294 4.74995H9.34739" stroke="white" stroke-width="0.833333" stroke-linecap="round" stroke-linejoin="round"/>
</svg>
