<svg width="17" height="17" viewBox="0 0 17 17" fill="none" xmlns="http://www.w3.org/2000/svg">
<path d="M7.27723 3.37478V12.7498C7.27723 13.4998 6.97167 14.1873 6.48556 14.6873L6.4578 14.7151C6.3953 14.7776 6.32585 14.8401 6.26335 14.8887C6.05502 15.0692 5.81889 15.2081 5.57584 15.3053C5.49945 15.3401 5.42307 15.3678 5.34668 15.3956C5.07585 15.4859 4.78418 15.5276 4.49946 15.5276C4.31196 15.5276 4.12447 15.5067 3.94391 15.472C3.85363 15.4512 3.76334 15.4303 3.67307 15.4026C3.56196 15.3678 3.45779 15.3331 3.35363 15.2845C3.35363 15.2776 3.35362 15.2776 3.34668 15.2845C3.15223 15.1873 2.96474 15.0762 2.79113 14.9442L2.78418 14.9373C2.6939 14.8678 2.61058 14.7984 2.53419 14.7151C2.4578 14.6317 2.3814 14.5484 2.30501 14.4581C2.17307 14.2845 2.06196 14.097 1.96474 13.9026C1.97168 13.8956 1.97168 13.8956 1.96474 13.8956C1.96474 13.8956 1.96473 13.8887 1.95779 13.8817C1.91612 13.7845 1.8814 13.6803 1.84667 13.5762C1.8189 13.4859 1.79806 13.3956 1.77723 13.3053C1.7425 13.1248 1.72168 12.9373 1.72168 12.7498V3.37478C1.72168 2.33312 2.41612 1.63867 3.45779 1.63867H5.54112C6.58279 1.63867 7.27723 2.33312 7.27723 3.37478Z" stroke="white" stroke-width="0.833333" stroke-linecap="round" stroke-linejoin="round"/>
<path d="M15.6111 11.7083V13.7916C15.6111 14.8333 14.9167 15.5277 13.875 15.5277H4.5C4.78472 15.5277 5.07639 15.4861 5.34722 15.3958C5.42361 15.368 5.49999 15.3402 5.57638 15.3055C5.81944 15.2083 6.05556 15.0694 6.26389 14.8888C6.32639 14.8402 6.39584 14.7777 6.45834 14.7152L6.4861 14.6874L11.2083 9.97217H13.875C14.9167 9.97217 15.6111 10.6666 15.6111 11.7083Z" stroke="white" stroke-width="0.833333" stroke-linecap="round" stroke-linejoin="round"/>
<path d="M3.67307 15.4028C3.2564 15.2778 2.86058 15.0486 2.53419 14.7153C2.20086 14.3889 1.97168 13.9931 1.84668 13.5764C2.11751 14.4445 2.80502 15.132 3.67307 15.4028Z" stroke="white" stroke-width="0.833333" stroke-linecap="round" stroke-linejoin="round"/>
<path d="M13.0895 8.0903L11.2076 9.97225L6.48535 14.6875C6.97146 14.1875 7.27703 13.5 7.27703 12.75V6.04169L9.15897 4.15975C9.89508 3.42364 10.8812 3.42364 11.6173 4.15975L13.0895 5.63197C13.8256 6.36808 13.8256 7.35419 13.0895 8.0903Z" stroke="white" stroke-width="0.833333" stroke-linecap="round" stroke-linejoin="round"/>
<path d="M4.49913 13.4443C4.88266 13.4443 5.19358 13.1334 5.19358 12.7499C5.19358 12.3663 4.88266 12.0554 4.49913 12.0554C4.1156 12.0554 3.80469 12.3663 3.80469 12.7499C3.80469 13.1334 4.1156 13.4443 4.49913 13.4443Z" stroke="white" stroke-width="0.833333" stroke-linecap="round" stroke-linejoin="round"/>
</svg>
