<svg width="17" height="18" viewBox="0 0 17 18" fill="none" xmlns="http://www.w3.org/2000/svg">
<path d="M6.64564 9.48535L4.52759 11.6034" stroke="white" stroke-width="0.833333" stroke-miterlimit="10" stroke-linecap="round" stroke-linejoin="round"/>
<path d="M4.54907 9.50684L6.66713 11.6249" stroke="white" stroke-width="0.833333" stroke-miterlimit="10" stroke-linecap="round" stroke-linejoin="round"/>
<path d="M9.39526 10.5547H9.40221" stroke="white" stroke-width="0.833333" stroke-miterlimit="10" stroke-linecap="round" stroke-linejoin="round"/>
<path d="M12.1326 10.5547H12.1395" stroke="white" stroke-width="0.833333" stroke-miterlimit="10" stroke-linecap="round" stroke-linejoin="round"/>
<path d="M10.7637 11.9299V11.916" stroke="white" stroke-width="0.833333" stroke-miterlimit="10" stroke-linecap="round" stroke-linejoin="round"/>
<path d="M10.7637 9.19358V9.17969" stroke="white" stroke-width="0.833333" stroke-miterlimit="10" stroke-linecap="round" stroke-linejoin="round"/>
<path d="M6.24978 16.1111H10.4165C13.8887 16.1111 15.2776 14.7222 15.2776 11.25V9.86111C15.2776 6.38889 13.8887 5 10.4165 5H6.24978C2.77756 5 1.38867 6.38889 1.38867 9.86111V11.25C1.38867 14.7222 2.77756 16.1111 6.24978 16.1111Z" stroke="white" stroke-width="0.833333" stroke-linecap="round" stroke-linejoin="round"/>
<path d="M9.03497 2.22168L9.02802 2.92307C9.02108 3.30501 8.71552 3.61057 8.33358 3.61057H8.31274C7.9308 3.61057 7.62524 3.92307 7.62524 4.30501C7.62524 4.68696 7.93774 4.99946 8.31969 4.99946H9.01413" stroke="white" stroke-width="0.833333" stroke-linecap="round" stroke-linejoin="round"/>
</svg>
