<svg width="17" height="17" viewBox="0 0 17 17" fill="none" xmlns="http://www.w3.org/2000/svg">
<path d="M8.771 11.7085V13.1668" stroke="white" stroke-width="0.833333" stroke-linecap="round" stroke-linejoin="round"/>
<path d="M5.29932 15.5277H12.2438V14.8332C12.2438 14.0693 11.6188 13.4443 10.8549 13.4443H6.6882C5.92432 13.4443 5.29932 14.0693 5.29932 14.8332V15.5277V15.5277Z" stroke="white" stroke-width="0.833333" stroke-miterlimit="10"/>
<path d="M4.60449 15.5278H12.9378" stroke="white" stroke-width="0.833333" stroke-linecap="round" stroke-linejoin="round"/>
<path d="M8.66629 11.3609C5.97879 11.3609 3.80518 9.18728 3.80518 6.49978V4.41645C3.80518 2.88173 5.04823 1.63867 6.58295 1.63867H10.7496C12.2843 1.63867 13.5274 2.88173 13.5274 4.41645V6.49978C13.5274 9.18728 11.3538 11.3609 8.66629 11.3609Z" stroke="white" stroke-width="0.833333" stroke-linecap="round" stroke-linejoin="round"/>
<path d="M4.13146 8.34044C3.61062 8.17377 3.15229 7.86822 2.79118 7.50711C2.16618 6.81266 1.74951 5.97933 1.74951 5.00711C1.74951 4.03488 2.5134 3.271 3.48562 3.271H3.93701C3.79812 3.59044 3.72868 3.94461 3.72868 4.31266V6.396C3.72868 7.09044 3.87451 7.74322 4.13146 8.34044Z" stroke="white" stroke-width="0.833333" stroke-linecap="round" stroke-linejoin="round"/>
<path d="M13.2012 8.34044C13.722 8.17377 14.1803 7.86822 14.5414 7.50711C15.1664 6.81266 15.5831 5.97933 15.5831 5.00711C15.5831 4.03488 14.8192 3.271 13.847 3.271H13.3956C13.5345 3.59044 13.6039 3.94461 13.6039 4.31266V6.396C13.6039 7.09044 13.4581 7.74322 13.2012 8.34044Z" stroke="white" stroke-width="0.833333" stroke-linecap="round" stroke-linejoin="round"/>
</svg>
