<svg width="17" height="17" viewBox="0 0 17 17" fill="none" xmlns="http://www.w3.org/2000/svg">
<path d="M8.68123 2.27075C6.38262 2.27075 4.51456 4.13881 4.51456 6.43742V8.44436C4.51456 8.86797 4.334 9.51381 4.11873 9.87492L3.32012 11.2013C2.82706 12.0208 3.16734 12.9305 4.07012 13.236C7.06317 14.236 10.2923 14.236 13.2854 13.236C14.1257 12.9583 14.4937 11.9652 14.0354 11.2013L13.2368 9.87492C13.0284 9.51381 12.8479 8.86797 12.8479 8.44436V6.43742C12.8479 4.14575 10.9729 2.27075 8.68123 2.27075Z" stroke="white" stroke-width="0.833333" stroke-miterlimit="10" stroke-linecap="round"/>
<path d="M9.96495 2.47217C9.74967 2.40967 9.52745 2.36106 9.29829 2.33328C8.63162 2.24995 7.99273 2.29856 7.39551 2.47217C7.5969 1.95828 8.0969 1.59717 8.68023 1.59717C9.26356 1.59717 9.76356 1.95828 9.96495 2.47217Z" stroke="white" stroke-width="0.833333" stroke-miterlimit="10" stroke-linecap="round" stroke-linejoin="round"/>
<path d="M10.7643 13.4861C10.7643 14.6319 9.82682 15.5694 8.68099 15.5694C8.11155 15.5694 7.58377 15.3333 7.20877 14.9583C6.83377 14.5833 6.59766 14.0555 6.59766 13.4861" stroke="white" stroke-width="0.833333" stroke-miterlimit="10"/>
</svg>
