<svg width="17" height="17" viewBox="0 0 17 17" fill="none" xmlns="http://www.w3.org/2000/svg">
<path d="M15.6113 5.99284V3.18728C15.6113 2.08312 15.1668 1.63867 14.0627 1.63867H11.2571C10.1529 1.63867 9.7085 2.08312 9.7085 3.18728V5.99284C9.7085 7.09701 10.1529 7.54145 11.2571 7.54145H14.0627C15.1668 7.54145 15.6113 7.09701 15.6113 5.99284Z" stroke="white" stroke-width="0.833333" stroke-linecap="round" stroke-linejoin="round"/>
<path d="M7.62446 6.16645V3.01367C7.62446 2.03451 7.18001 1.63867 6.07585 1.63867H3.27029C2.16612 1.63867 1.72168 2.03451 1.72168 3.01367V6.15951C1.72168 7.14562 2.16612 7.53451 3.27029 7.53451H6.07585C7.18001 7.54145 7.62446 7.14562 7.62446 6.16645Z" stroke="white" stroke-width="0.833333" stroke-linecap="round" stroke-linejoin="round"/>
<path d="M7.62446 13.9792V11.1736C7.62446 10.0694 7.18001 9.625 6.07585 9.625H3.27029C2.16612 9.625 1.72168 10.0694 1.72168 11.1736V13.9792C1.72168 15.0833 2.16612 15.5278 3.27029 15.5278H6.07585C7.18001 15.5278 7.62446 15.0833 7.62446 13.9792Z" stroke="white" stroke-width="0.833333" stroke-linecap="round" stroke-linejoin="round"/>
<path d="M10.4033 12.4028H14.57" stroke="white" stroke-width="0.833333" stroke-linecap="round"/>
<path d="M12.4868 14.486V10.3193" stroke="white" stroke-width="0.833333" stroke-linecap="round"/>
</svg>
