<svg width="17" height="17" viewBox="0 0 17 17" fill="none" xmlns="http://www.w3.org/2000/svg">
<path d="M8.77051 11.7085V13.1668" stroke="white" stroke-width="0.833333" stroke-linecap="round" stroke-linejoin="round"/>
<path d="M5.29883 15.5277H12.2433V14.8332C12.2433 14.0693 11.6183 13.4443 10.8544 13.4443H6.68772C5.92383 13.4443 5.29883 14.0693 5.29883 14.8332V15.5277V15.5277Z" stroke="white" stroke-width="0.833333" stroke-miterlimit="10"/>
<path d="M4.60352 15.5278H12.9368" stroke="white" stroke-width="0.833333" stroke-linecap="round" stroke-linejoin="round"/>
<path d="M8.6658 11.3609C5.9783 11.3609 3.80469 9.18728 3.80469 6.49978V4.41645C3.80469 2.88173 5.04774 1.63867 6.58247 1.63867H10.7491C12.2839 1.63867 13.5269 2.88173 13.5269 4.41645V6.49978C13.5269 9.18728 11.3533 11.3609 8.6658 11.3609Z" stroke="white" stroke-width="0.833333" stroke-linecap="round" stroke-linejoin="round"/>
<path d="M4.13097 8.34044C3.61013 8.17377 3.1518 7.86822 2.79069 7.50711C2.16569 6.81266 1.74902 5.97933 1.74902 5.00711C1.74902 4.03488 2.51291 3.271 3.48513 3.271H3.93652C3.79763 3.59044 3.72819 3.94461 3.72819 4.31266V6.396C3.72819 7.09044 3.87402 7.74322 4.13097 8.34044Z" stroke="white" stroke-width="0.833333" stroke-linecap="round" stroke-linejoin="round"/>
<path d="M13.2012 8.34044C13.722 8.17377 14.1803 7.86822 14.5414 7.50711C15.1664 6.81266 15.5831 5.97933 15.5831 5.00711C15.5831 4.03488 14.8192 3.271 13.847 3.271H13.3956C13.5345 3.59044 13.6039 3.94461 13.6039 4.31266V6.396C13.6039 7.09044 13.4581 7.74322 13.2012 8.34044Z" stroke="white" stroke-width="0.833333" stroke-linecap="round" stroke-linejoin="round"/>
</svg>
