<svg width="17" height="17" viewBox="0 0 17 17" fill="none" xmlns="http://www.w3.org/2000/svg">
<path d="M8.77051 11.708V13.1663" stroke="white" stroke-width="0.833333" stroke-linecap="round" stroke-linejoin="round"/>
<path d="M5.29883 15.5286H12.2433V14.8342C12.2433 14.0703 11.6183 13.4453 10.8544 13.4453H6.68772C5.92383 13.4453 5.29883 14.0703 5.29883 14.8342V15.5286V15.5286Z" stroke="white" stroke-width="0.833333" stroke-miterlimit="10"/>
<path d="M4.60352 15.5273H12.9368" stroke="white" stroke-width="0.833333" stroke-linecap="round" stroke-linejoin="round"/>
<path d="M8.6658 11.3609C5.9783 11.3609 3.80469 9.18728 3.80469 6.49978V4.41645C3.80469 2.88173 5.04774 1.63867 6.58247 1.63867H10.7491C12.2839 1.63867 13.5269 2.88173 13.5269 4.41645V6.49978C13.5269 9.18728 11.3533 11.3609 8.6658 11.3609Z" stroke="white" stroke-width="0.833333" stroke-linecap="round" stroke-linejoin="round"/>
<path d="M4.13097 8.33995C3.61013 8.17328 3.1518 7.86773 2.79069 7.50662C2.16569 6.81217 1.74902 5.97884 1.74902 5.00662C1.74902 4.0344 2.51291 3.27051 3.48513 3.27051H3.93652C3.79763 3.58995 3.72819 3.94412 3.72819 4.31217V6.39551C3.72819 7.08995 3.87402 7.74273 4.13097 8.33995Z" stroke="white" stroke-width="0.833333" stroke-linecap="round" stroke-linejoin="round"/>
<path d="M13.2012 8.33995C13.722 8.17328 14.1803 7.86773 14.5414 7.50662C15.1664 6.81217 15.5831 5.97884 15.5831 5.00662C15.5831 4.0344 14.8192 3.27051 13.847 3.27051H13.3956C13.5345 3.58995 13.6039 3.94412 13.6039 4.31217V6.39551C13.6039 7.08995 13.4581 7.74273 13.2012 8.33995Z" stroke="white" stroke-width="0.833333" stroke-linecap="round" stroke-linejoin="round"/>
</svg>
