<svg width="17" height="18" viewBox="0 0 17 18" fill="none" xmlns="http://www.w3.org/2000/svg">
<path d="M15.0417 7.75018L14.3612 10.653C13.7778 13.1599 12.6251 14.1738 10.4584 13.9655C10.1112 13.9377 9.73618 13.8752 9.3334 13.778L8.16674 13.5002C5.2709 12.8127 4.37507 11.3821 5.05563 8.47935L5.73618 5.56963C5.87507 4.97935 6.04174 4.46546 6.25007 4.04185C7.06257 2.36129 8.44451 1.9099 10.764 2.45852L11.9237 2.72935C14.8334 3.4099 15.7223 4.8474 15.0417 7.75018Z" stroke="white" stroke-width="0.833333" stroke-linecap="round" stroke-linejoin="round"/>
<path d="M8.13772 7.90999C8.09086 7.16036 8.56957 6.37172 9.34953 6.3182C9.76393 6.29403 10.2097 6.51413 10.3786 6.95081C10.7248 6.63002 11.2384 6.66678 11.5848 6.88328C12.2523 7.30274 12.292 8.22244 11.9013 8.86144C11.2805 9.87205 9.93064 10.1396 9.59401 10.0545C9.26581 9.96441 8.21541 9.10435 8.13772 7.90999Z" stroke="white" stroke-width="0.833333" stroke-linecap="round" stroke-linejoin="round"/>
<path d="M10.4581 13.9656C10.0275 14.2573 9.48586 14.5003 8.82614 14.7156L7.72892 15.0767C4.97197 15.9656 3.52058 15.2225 2.62475 12.4656L1.73586 9.72255C0.846971 6.9656 1.58308 5.50727 4.34003 4.61838L5.43725 4.25727C5.72197 4.16699 5.9928 4.0906 6.24975 4.04199C6.04141 4.4656 5.87475 4.97949 5.73586 5.56977L5.0553 8.47949C4.37475 11.3823 5.27058 12.8128 8.16642 13.5003L9.33308 13.7781C9.73586 13.8753 10.1109 13.9378 10.4581 13.9656Z" stroke="white" stroke-width="0.833333" stroke-linecap="round" stroke-linejoin="round"/>
</svg>
