<svg width="17" height="17" viewBox="0 0 17 17" fill="none" xmlns="http://www.w3.org/2000/svg">
<path d="M8.68123 2.27051C6.38262 2.27051 4.51456 4.13856 4.51456 6.43717V8.44412C4.51456 8.86773 4.334 9.51356 4.11873 9.87467L3.32012 11.2011C2.82706 12.0205 3.16734 12.9302 4.07012 13.2358C7.06317 14.2358 10.2923 14.2358 13.2854 13.2358C14.1257 12.958 14.4937 11.965 14.0354 11.2011L13.2368 9.87467C13.0284 9.51356 12.8479 8.86773 12.8479 8.44412V6.43717C12.8479 4.14551 10.9729 2.27051 8.68123 2.27051Z" stroke="white" stroke-width="0.833333" stroke-miterlimit="10" stroke-linecap="round"/>
<path d="M9.96495 2.47266C9.74967 2.41016 9.52745 2.36155 9.29829 2.33377C8.63162 2.25043 7.99273 2.29905 7.39551 2.47266C7.5969 1.95877 8.0969 1.59766 8.68023 1.59766C9.26356 1.59766 9.76356 1.95877 9.96495 2.47266Z" stroke="white" stroke-width="0.833333" stroke-miterlimit="10" stroke-linecap="round" stroke-linejoin="round"/>
<path d="M10.7643 13.4863C10.7643 14.6322 9.82682 15.5697 8.68099 15.5697C8.11155 15.5697 7.58377 15.3336 7.20877 14.9586C6.83377 14.5836 6.59766 14.0558 6.59766 13.4863" stroke="white" stroke-width="0.833333" stroke-miterlimit="10"/>
</svg>
