<svg width="27" height="27" viewBox="0 0 27 27" fill="none" xmlns="http://www.w3.org/2000/svg">
<path d="M10.6983 13.9297L7.28857 17.3395" stroke="#FF5353" stroke-width="1.67694" stroke-miterlimit="10" stroke-linecap="round" stroke-linejoin="round"/>
<path d="M7.32349 13.9629L10.7333 17.3727" stroke="#FF5353" stroke-width="1.67694" stroke-miterlimit="10" stroke-linecap="round" stroke-linejoin="round"/>
<path d="M15.1252 15.6514H15.1364" stroke="#FF5353" stroke-width="2.23592" stroke-miterlimit="10" stroke-linecap="round" stroke-linejoin="round"/>
<path d="M19.5315 15.6514H19.5427" stroke="#FF5353" stroke-width="2.23592" stroke-miterlimit="10" stroke-linecap="round" stroke-linejoin="round"/>
<path d="M17.3284 17.8651V17.8428" stroke="#FF5353" stroke-width="2.23592" stroke-miterlimit="10" stroke-linecap="round" stroke-linejoin="round"/>
<path d="M17.3284 13.4599V13.4375" stroke="#FF5353" stroke-width="2.23592" stroke-miterlimit="10" stroke-linecap="round" stroke-linejoin="round"/>
<path d="M10.0616 24.5953H16.7693C22.3591 24.5953 24.595 22.3594 24.595 16.7696V14.5337C24.595 8.94393 22.3591 6.70801 16.7693 6.70801H10.0616C4.47176 6.70801 2.23584 8.94393 2.23584 14.5337V16.7696C2.23584 22.3594 4.47176 24.5953 10.0616 24.5953Z" stroke="#FF5353" stroke-width="1.67694" stroke-linecap="round" stroke-linejoin="round"/>
<path d="M14.5451 2.23633L14.5339 3.36547C14.5227 3.98034 14.0308 4.47225 13.416 4.47225H13.3824C12.7675 4.47225 12.2756 4.97533 12.2756 5.5902C12.2756 6.20508 12.7787 6.70816 13.3936 6.70816H14.5116" stroke="#FF5353" stroke-width="1.67694" stroke-linecap="round" stroke-linejoin="round"/>
</svg>
