<svg width="17" height="18" viewBox="0 0 17 18" fill="none" xmlns="http://www.w3.org/2000/svg">
<path d="M6.97841 9.23633L4.86035 11.3544" stroke="white" stroke-width="0.833333" stroke-miterlimit="10" stroke-linecap="round" stroke-linejoin="round"/>
<path d="M4.88184 9.25684L6.99989 11.3749" stroke="white" stroke-width="0.833333" stroke-miterlimit="10" stroke-linecap="round" stroke-linejoin="round"/>
<path d="M9.72852 10.3057H9.73546" stroke="white" stroke-width="0.833333" stroke-miterlimit="10" stroke-linecap="round" stroke-linejoin="round"/>
<path d="M12.4648 10.3057H12.4718" stroke="white" stroke-width="0.833333" stroke-miterlimit="10" stroke-linecap="round" stroke-linejoin="round"/>
<path d="M11.0977 11.6804V11.6665" stroke="white" stroke-width="0.833333" stroke-miterlimit="10" stroke-linecap="round" stroke-linejoin="round"/>
<path d="M11.0977 8.94455V8.93066" stroke="white" stroke-width="0.833333" stroke-miterlimit="10" stroke-linecap="round" stroke-linejoin="round"/>
<path d="M6.58377 15.8611H10.7504C14.2227 15.8611 15.6115 14.4722 15.6115 11V9.61111C15.6115 6.13889 14.2227 4.75 10.7504 4.75H6.58377C3.11155 4.75 1.72266 6.13889 1.72266 9.61111V11C1.72266 14.4722 3.11155 15.8611 6.58377 15.8611Z" stroke="white" stroke-width="0.833333" stroke-linecap="round" stroke-linejoin="round"/>
<path d="M9.36773 1.97217L9.36079 2.67356C9.35384 3.0555 9.04829 3.36106 8.66634 3.36106H8.64551C8.26356 3.36106 7.95801 3.67356 7.95801 4.0555C7.95801 4.43745 8.27051 4.74995 8.65245 4.74995H9.3469" stroke="white" stroke-width="0.833333" stroke-linecap="round" stroke-linejoin="round"/>
</svg>
